<?xml version="1.0" encoding="UTF-8"?>
<svg id="rectangles" xmlns="http://www.w3.org/2000/svg" viewBox="0 0 1825 837.5">
  <defs>
    <style>
      .cls-1 {
        fill: #feeca2;
      }

      .cls-1, .cls-2, .cls-3, .cls-4 {
        stroke: #000;
        stroke-width: 4px;
      }

      .cls-1, .cls-2, .cls-3, .cls-4, .cls-5 {
        stroke-miterlimit: 10;
      }

      .cls-2 {
        fill: #ffda00;
      }

      .cls-6, .cls-4 {
        fill: #fff;
      }

      .cls-5 {
        fill: none;
        stroke: #231f20;
      }
    </style>
  </defs>
  <g>
    <rect class="cls-6" x="412.5" y="525" width="100" height="100"/>
    <rect class="cls-6" x="512.5" y="525" width="100" height="100"/>
    <rect class="cls-6" x="212.5" y="525" width="100" height="100"/>
    <rect class="cls-6" x="212.5" y="325" width="100" height="100"/>
    <rect class="cls-6" x="212.5" y="25" width="100" height="100"/>
    <rect class="cls-6" x="212.5" y="225" width="100" height="100"/>
    <rect class="cls-6" x="612.5" y="425" width="100" height="100"/>
    <rect class="cls-6" x="312.5" y="525" width="100" height="100"/>
    <rect class="cls-6" x="212.5" y="425" width="100" height="100"/>
    <rect class="cls-6" x="212.5" y="125" width="100" height="100"/>
    <rect class="cls-6" x="112.5" y="25" width="100" height="100"/>
    <rect class="cls-6" x="12.5" y="25" width="100" height="100"/>
    <rect class="cls-6" x="612.5" y="525" width="100" height="100"/>
    <rect class="cls-6" x="612.5" y="325" width="100" height="100"/>
    <rect class="cls-6" x="612.5" y="225" width="100" height="100"/>
    <rect class="cls-6" x="612.5" y="125" width="100" height="100"/>
    <rect class="cls-6" x="712.5" y="25" width="100" height="100"/>
    <rect class="cls-6" x="612.5" y="25" width="100" height="100"/>
    <rect class="cls-6" x="812.5" y="25" width="100" height="100"/>
    <rect class="cls-6" x="912.5" y="25" width="100" height="100"/>
    <rect class="cls-6" x="1012.5" y="25" width="100" height="100"/>
    <rect class="cls-6" x="1112.5" y="25" width="100" height="100"/>
    <rect class="cls-6" x="1112.5" y="125" width="100" height="100"/>
    <rect class="cls-6" x="1112.5" y="225" width="100" height="100"/>
    <rect class="cls-6" x="1112.5" y="325" width="100" height="100"/>
    <rect class="cls-6" x="1312.5" y="325" width="100" height="100"/>
    <rect class="cls-6" x="1412.5" y="325" width="100" height="100"/>
    <rect class="cls-6" x="1212.5" y="325" width="100" height="100"/>
    <rect class="cls-6" x="1512.5" y="325" width="100" height="100"/>
    <rect class="cls-6" x="1612.5" y="325" width="100" height="100"/>
    <rect class="cls-6" x="1712.5" y="325" width="100" height="100"/>
    <rect class="cls-6" x="1712.5" y="725" width="100" height="100"/>
    <rect class="cls-6" x="1712.5" y="625" width="100" height="100"/>
    <rect class="cls-6" x="1712.5" y="525" width="100" height="100"/>
    <rect class="cls-6" x="1712.5" y="425" width="100" height="100"/>
  </g>
  <g>
    <rect class="cls-4" x="412.5" y="525" width="100" height="100"/>
    <rect class="cls-4" x="512.5" y="525" width="100" height="100"/>
    <rect class="cls-3" x="212.5" y="525" width="100" height="100"/>
    <rect class="cls-4" x="212.5" y="325" width="100" height="100"/>
    <rect class="cls-3" x="212.5" y="25" width="100" height="100"/>
    <rect class="cls-2" x="212.5" y="225" width="100" height="100"/>
    <rect class="cls-4" x="612.5" y="425" width="100" height="100"/>
    <rect class="cls-4" x="312.5" y="525" width="100" height="100"/>
    <rect class="cls-4" x="212.5" y="425" width="100" height="100"/>
    <rect class="cls-1" x="212.5" y="125" width="100" height="100"/>
    <rect class="cls-1" x="112.5" y="25" width="100" height="100"/>
    <rect class="cls-1" x="12.5" y="25" width="100" height="100"/>
    <rect class="cls-3" x="612.5" y="525" width="100" height="100"/>
    <rect class="cls-4" x="612.5" y="325" width="100" height="100"/>
    <rect class="cls-4" x="612.5" y="225" width="100" height="100"/>
    <rect class="cls-4" x="612.5" y="125" width="100" height="100"/>
    <rect class="cls-4" x="712.5" y="25" width="100" height="100"/>
    <rect class="cls-3" x="612.5" y="25" width="100" height="100"/>
    <rect class="cls-4" x="812.5" y="25" width="100" height="100"/>
    <rect class="cls-4" x="912.5" y="25" width="100" height="100"/>
    <rect class="cls-4" x="1012.5" y="25" width="100" height="100"/>
    <rect class="cls-3" x="1112.5" y="25" width="100" height="100"/>
    <rect class="cls-4" x="1112.5" y="125" width="100" height="100"/>
    <rect class="cls-4" x="1112.5" y="225" width="100" height="100"/>
    <rect class="cls-3" x="1112.5" y="325" width="100" height="100"/>
    <rect class="cls-4" x="1312.5" y="325" width="100" height="100"/>
    <rect class="cls-4" x="1412.5" y="325" width="100" height="100"/>
    <rect class="cls-4" x="1212.5" y="325" width="100" height="100"/>
    <rect class="cls-4" x="1512.5" y="325" width="100" height="100"/>
    <rect class="cls-4" x="1612.5" y="325" width="100" height="100"/>
    <rect class="cls-3" x="1712.5" y="325" width="100" height="100"/>
    <rect class="cls-4" x="1712.5" y="725" width="100" height="100"/>
    <rect class="cls-4" x="1712.5" y="625" width="100" height="100"/>
    <rect class="cls-4" x="1712.5" y="525" width="100" height="100"/>
    <rect class="cls-4" x="1712.5" y="425" width="100" height="100"/>
  </g>
  <g>
    <rect class="cls-5" x="412.5" y="525" width="100" height="100"/>
    <rect class="cls-5" x="512.5" y="525" width="100" height="100"/>
    <rect class="cls-5" x="212.5" y="525" width="100" height="100"/>
    <rect class="cls-5" x="212.5" y="325" width="100" height="100"/>
    <rect class="cls-5" x="212.5" y="25" width="100" height="100"/>
    <rect class="cls-5" x="212.5" y="225" width="100" height="100"/>
    <rect class="cls-5" x="612.5" y="425" width="100" height="100"/>
    <rect class="cls-5" x="312.5" y="525" width="100" height="100"/>
    <rect class="cls-5" x="212.5" y="425" width="100" height="100"/>
    <rect class="cls-5" x="212.5" y="125" width="100" height="100"/>
    <rect class="cls-5" x="112.5" y="25" width="100" height="100"/>
    <rect class="cls-5" x="12.5" y="25" width="100" height="100"/>
    <rect class="cls-5" x="612.5" y="525" width="100" height="100"/>
    <rect class="cls-5" x="612.5" y="325" width="100" height="100"/>
    <rect class="cls-5" x="612.5" y="225" width="100" height="100"/>
    <rect class="cls-5" x="612.5" y="125" width="100" height="100"/>
    <rect class="cls-5" x="712.5" y="25" width="100" height="100"/>
    <rect class="cls-5" x="612.5" y="25" width="100" height="100"/>
    <rect class="cls-5" x="812.5" y="25" width="100" height="100"/>
    <rect class="cls-5" x="912.5" y="25" width="100" height="100"/>
    <rect class="cls-5" x="1012.5" y="25" width="100" height="100"/>
    <rect class="cls-5" x="1112.5" y="25" width="100" height="100"/>
    <rect class="cls-5" x="1112.5" y="125" width="100" height="100"/>
    <rect class="cls-5" x="1112.5" y="225" width="100" height="100"/>
    <rect class="cls-5" x="1112.5" y="325" width="100" height="100"/>
    <rect class="cls-5" x="1312.5" y="325" width="100" height="100"/>
    <rect class="cls-5" x="1412.5" y="325" width="100" height="100"/>
    <rect class="cls-5" x="1212.5" y="325" width="100" height="100"/>
    <rect class="cls-5" x="1512.5" y="325" width="100" height="100"/>
    <rect class="cls-5" x="1612.5" y="325" width="100" height="100"/>
    <rect class="cls-5" x="1712.5" y="325" width="100" height="100"/>
    <rect class="cls-5" x="1712.5" y="725" width="100" height="100"/>
    <rect class="cls-5" x="1712.5" y="625" width="100" height="100"/>
    <rect class="cls-5" x="1712.5" y="525" width="100" height="100"/>
    <rect class="cls-5" x="1712.5" y="425" width="100" height="100"/>
  </g>
</svg>