<?xml version="1.0" encoding="UTF-8"?>
<svg id="rectangles" xmlns="http://www.w3.org/2000/svg" viewBox="0 0 505 3625">
  <defs>
    <style>
      .cls-1 {
        fill: #feeca2;
      }

      .cls-1, .cls-2, .cls-3, .cls-4 {
        stroke: #000;
        stroke-width: 4px;
      }

      .cls-1, .cls-2, .cls-3, .cls-4, .cls-5 {
        stroke-miterlimit: 10;
      }

      .cls-2 {
        fill: #231f20;
      }

      .cls-3 {
        fill: #ffda00;
      }

      .cls-6, .cls-4 {
        fill: #fff;
      }

      .cls-5 {
        fill: none;
        stroke: #231f20;
      }
    </style>
  </defs>
  <g>
    <rect class="cls-6" x="205" y="150" width="100" height="100"/>
    <rect class="cls-6" x="205" y="50" width="100" height="100"/>
    <rect class="cls-6" x="205" y="350" width="100" height="100"/>
    <rect class="cls-6" x="205" y="250" width="100" height="100"/>
    <rect class="cls-6" x="205" y="550" width="100" height="100"/>
    <rect class="cls-6" x="205" y="450" width="100" height="100"/>
    <rect class="cls-6" x="205" y="750" width="100" height="100"/>
    <rect class="cls-6" x="205" y="650" width="100" height="100"/>
    <rect class="cls-6" x="205" y="950" width="100" height="100"/>
    <rect class="cls-6" x="205" y="850" width="100" height="100"/>
    <rect class="cls-6" x="205" y="1150" width="100" height="100"/>
    <rect class="cls-6" x="205" y="1050" width="100" height="100"/>
    <rect class="cls-6" x="205" y="1350" width="100" height="100"/>
    <rect class="cls-6" x="205" y="1250" width="100" height="100"/>
    <rect class="cls-6" x="205" y="1550" width="100" height="100"/>
    <rect class="cls-6" x="205" y="1450" width="100" height="100"/>
    <rect class="cls-6" x="205" y="1750" width="100" height="100"/>
    <rect class="cls-6" x="205" y="1650" width="100" height="100"/>
    <rect class="cls-6" x="205" y="1950" width="100" height="100"/>
    <rect class="cls-6" x="205" y="1850" width="100" height="100"/>
    <rect class="cls-6" x="205" y="2150" width="100" height="100"/>
    <rect class="cls-6" x="205" y="2050" width="100" height="100"/>
    <rect class="cls-6" x="205" y="2350" width="100" height="100"/>
    <rect class="cls-6" x="205" y="2250" width="100" height="100"/>
    <rect class="cls-6" x="205" y="2550" width="100" height="100"/>
    <rect class="cls-6" x="205" y="2450" width="100" height="100"/>
    <rect class="cls-6" x="205" y="2750" width="100" height="100"/>
    <rect class="cls-6" x="205" y="2650" width="100" height="100"/>
    <rect class="cls-6" x="205" y="2950" width="100" height="100"/>
    <rect class="cls-6" x="205" y="2850" width="100" height="100"/>
    <rect class="cls-6" x="205" y="3150" width="100" height="100"/>
    <rect class="cls-6" x="205" y="3050" width="100" height="100"/>
    <rect class="cls-6" x="205" y="3250" width="100" height="100"/>
    <rect class="cls-6" x="205" y="3450" width="100" height="100"/>
    <rect class="cls-6" x="205" y="3350" width="100" height="100"/>
  </g>
  <g>
    <rect class="cls-1" x="205" y="150" width="100" height="100"/>
    <rect class="cls-1" x="205" y="50" width="100" height="100"/>
    <rect class="cls-1" x="205" y="350" width="100" height="100"/>
    <rect class="cls-2" x="205" y="250" width="100" height="100"/>
    <rect class="cls-1" x="205" y="550" width="100" height="100"/>
    <rect class="cls-1" x="205" y="450" width="100" height="100"/>
    <rect class="cls-2" x="205" y="750" width="100" height="100"/>
    <rect class="cls-1" x="205" y="650" width="100" height="100"/>
    <rect class="cls-1" x="205" y="950" width="100" height="100"/>
    <rect class="cls-1" x="205" y="850" width="100" height="100"/>
    <rect class="cls-2" x="205" y="1150" width="100" height="100"/>
    <rect class="cls-1" x="205" y="1050" width="100" height="100"/>
    <rect class="cls-1" x="205" y="1350" width="100" height="100"/>
    <rect class="cls-1" x="205" y="1250" width="100" height="100"/>
    <rect class="cls-1" x="205" y="1550" width="100" height="100"/>
    <rect class="cls-1" x="205" y="1450" width="100" height="100"/>
    <rect class="cls-1" x="205" y="1750" width="100" height="100"/>
    <rect class="cls-2" x="205" y="1650" width="100" height="100"/>
    <rect class="cls-3" x="205" y="1950" width="100" height="100"/>
    <rect class="cls-1" x="205" y="1850" width="100" height="100"/>
    <rect class="cls-2" x="205" y="2150" width="100" height="100"/>
    <rect class="cls-4" x="205" y="2050" width="100" height="100"/>
    <rect class="cls-4" x="205" y="2350" width="100" height="100"/>
    <rect class="cls-4" x="205" y="2250" width="100" height="100"/>
    <rect class="cls-4" x="205" y="2550" width="100" height="100"/>
    <rect class="cls-2" x="205" y="2450" width="100" height="100"/>
    <rect class="cls-4" x="205" y="2750" width="100" height="100"/>
    <rect class="cls-4" x="205" y="2650" width="100" height="100"/>
    <rect class="cls-4" x="205" y="2950" width="100" height="100"/>
    <rect class="cls-4" x="205" y="2850" width="100" height="100"/>
    <rect class="cls-4" x="205" y="3150" width="100" height="100"/>
    <rect class="cls-2" x="205" y="3050" width="100" height="100"/>
    <rect class="cls-4" x="205" y="3250" width="100" height="100"/>
    <rect class="cls-4" x="205" y="3450" width="100" height="100"/>
    <rect class="cls-4" x="205" y="3350" width="100" height="100"/>
  </g>
  <g>
    <rect class="cls-5" x="205" y="150" width="100" height="100"/>
    <rect class="cls-5" x="205" y="50" width="100" height="100"/>
    <rect class="cls-5" x="205" y="350" width="100" height="100"/>
    <rect class="cls-5" x="205" y="250" width="100" height="100"/>
    <rect class="cls-5" x="205" y="550" width="100" height="100"/>
    <rect class="cls-5" x="205" y="450" width="100" height="100"/>
    <rect class="cls-5" x="205" y="750" width="100" height="100"/>
    <rect class="cls-5" x="205" y="650" width="100" height="100"/>
    <rect class="cls-5" x="205" y="950" width="100" height="100"/>
    <rect class="cls-5" x="205" y="850" width="100" height="100"/>
    <rect class="cls-5" x="205" y="1150" width="100" height="100"/>
    <rect class="cls-5" x="205" y="1050" width="100" height="100"/>
    <rect class="cls-5" x="205" y="1350" width="100" height="100"/>
    <rect class="cls-5" x="205" y="1250" width="100" height="100"/>
    <rect class="cls-5" x="205" y="1550" width="100" height="100"/>
    <rect class="cls-5" x="205" y="1450" width="100" height="100"/>
    <rect class="cls-5" x="205" y="1750" width="100" height="100"/>
    <rect class="cls-5" x="205" y="1650" width="100" height="100"/>
    <rect class="cls-5" x="205" y="1950" width="100" height="100"/>
    <rect class="cls-5" x="205" y="1850" width="100" height="100"/>
    <rect class="cls-5" x="205" y="2150" width="100" height="100"/>
    <rect class="cls-5" x="205" y="2050" width="100" height="100"/>
    <rect class="cls-5" x="205" y="2350" width="100" height="100"/>
    <rect class="cls-5" x="205" y="2250" width="100" height="100"/>
    <rect class="cls-5" x="205" y="2550" width="100" height="100"/>
    <rect class="cls-5" x="205" y="2450" width="100" height="100"/>
    <rect class="cls-5" x="205" y="2750" width="100" height="100"/>
    <rect class="cls-5" x="205" y="2650" width="100" height="100"/>
    <rect class="cls-5" x="205" y="2950" width="100" height="100"/>
    <rect class="cls-5" x="205" y="2850" width="100" height="100"/>
    <rect class="cls-5" x="205" y="3150" width="100" height="100"/>
    <rect class="cls-5" x="205" y="3050" width="100" height="100"/>
    <rect class="cls-5" x="205" y="3250" width="100" height="100"/>
    <rect class="cls-5" x="205" y="3450" width="100" height="100"/>
    <rect class="cls-5" x="205" y="3350" width="100" height="100"/>
  </g>
</svg>