<?xml version="1.0" encoding="UTF-8"?>
<svg xmlns="http://www.w3.org/2000/svg" viewBox="0 0 1600 1600">
  <defs>
    <style>
      .cls-1 {
        fill: #feeca2;
      }

      .cls-1, .cls-2, .cls-3, .cls-4 {
        stroke: #000;
        stroke-width: 4px;
      }

      .cls-1, .cls-2, .cls-3, .cls-4, .cls-5 {
        stroke-miterlimit: 10;
      }

      .cls-2 {
        fill: #ffda00;
      }

      .cls-6, .cls-4 {
        fill: #fff;
      }

      .cls-7 {
        fill: #bcbec0;
      }

      .cls-5 {
        fill: none;
        stroke: #231f20;
      }
    </style>
  </defs>
  <g id="rectangles">
    <g>
      <rect class="cls-6" x="-112.5" y="-162.5" width="1825" height="1925"/>
      <rect class="cls-6" x="1150" y="50" width="100" height="100"/>
      <rect class="cls-6" x="1150" y="150" width="100" height="100"/>
      <rect class="cls-6" x="1150" y="250" width="100" height="100"/>
      <rect class="cls-6" x="1150" y="350" width="100" height="100"/>
      <rect class="cls-6" x="1150" y="450" width="100" height="100"/>
      <rect class="cls-6" x="1150" y="550" width="100" height="100"/>
      <rect class="cls-6" x="1150" y="650" width="100" height="100"/>
      <rect class="cls-6" x="1150" y="750" width="100" height="100"/>
      <rect class="cls-6" x="1150" y="850" width="100" height="100"/>
      <rect class="cls-6" x="1150" y="950" width="100" height="100"/>
      <rect class="cls-6" x="1150" y="1050" width="100" height="100"/>
      <rect class="cls-6" x="1150" y="1150" width="100" height="100"/>
      <rect class="cls-6" x="1150" y="1250" width="100" height="100"/>
      <rect class="cls-6" x="1150" y="1350" width="100" height="100"/>
      <rect class="cls-6" x="1150" y="1450" width="100" height="100"/>
      <rect class="cls-6" x="1050" y="1050" width="100" height="100"/>
      <rect class="cls-6" x="950" y="1050" width="100" height="100"/>
      <rect class="cls-6" x="850" y="1050" width="100" height="100"/>
      <rect class="cls-6" x="750" y="1050" width="100" height="100"/>
      <rect class="cls-6" x="650" y="1050" width="100" height="100"/>
      <rect class="cls-6" x="550" y="1050" width="100" height="100"/>
      <rect class="cls-6" x="450" y="1050" width="100" height="100"/>
      <rect class="cls-6" x="1450" y="1050" width="100" height="100"/>
      <rect class="cls-6" x="1350" y="1050" width="100" height="100"/>
      <rect class="cls-6" x="1250" y="1050" width="100" height="100"/>
      <rect class="cls-6" x="350" y="1050" width="100" height="100"/>
      <rect class="cls-6" x="250" y="1050" width="100" height="100"/>
      <rect class="cls-6" x="150" y="1050" width="100" height="100"/>
    </g>
    <g>
      <rect class="cls-6" x="-112.5" y="-162.5" width="1825" height="1925"/>
      <rect class="cls-4" x="1150" y="50" width="100" height="100"/>
      <rect class="cls-4" x="1150" y="150" width="100" height="100"/>
      <rect class="cls-2" x="1150" y="250" width="100" height="100"/>
      <rect class="cls-1" x="1150" y="350" width="100" height="100"/>
      <rect class="cls-1" x="1150" y="450" width="100" height="100"/>
      <rect class="cls-1" x="1150" y="550" width="100" height="100"/>
      <rect class="cls-3" x="1150" y="650" width="100" height="100"/>
      <rect class="cls-1" x="1150" y="750" width="100" height="100"/>
      <rect class="cls-1" x="1150" y="850" width="100" height="100"/>
      <rect class="cls-1" x="1150" y="950" width="100" height="100"/>
      <rect class="cls-1" x="1150" y="1050" width="100" height="100"/>
      <rect class="cls-1" x="1150" y="1150" width="100" height="100"/>
      <rect class="cls-1" x="1150" y="1250" width="100" height="100"/>
      <rect class="cls-1" x="1150" y="1350" width="100" height="100"/>
      <rect class="cls-4" x="1150" y="1450" width="100" height="100"/>
      <rect class="cls-1" x="1050" y="1050" width="100" height="100"/>
      <rect class="cls-1" x="950" y="1050" width="100" height="100"/>
      <rect class="cls-3" x="850" y="1050" width="100" height="100"/>
      <rect class="cls-1" x="750" y="1050" width="100" height="100"/>
      <rect class="cls-1" x="650" y="1050" width="100" height="100"/>
      <rect class="cls-2" x="550" y="1050" width="100" height="100"/>
      <rect class="cls-4" x="450" y="1050" width="100" height="100"/>
      <rect class="cls-4" x="1450" y="1050" width="100" height="100"/>
      <rect class="cls-4" x="1350" y="1050" width="100" height="100"/>
      <rect class="cls-4" x="1250" y="1050" width="100" height="100"/>
      <rect class="cls-4" x="350" y="1050" width="100" height="100"/>
      <rect class="cls-4" x="250" y="1050" width="100" height="100"/>
      <rect class="cls-4" x="150" y="1050" width="100" height="100"/>
    </g>
    <g>
      <rect class="cls-5" x="-112.5" y="-162.5" width="1825" height="1925"/>
      <rect class="cls-5" x="1150" y="50" width="100" height="100"/>
      <rect class="cls-5" x="1150" y="150" width="100" height="100"/>
      <rect class="cls-5" x="1150" y="250" width="100" height="100"/>
      <rect class="cls-5" x="1150" y="350" width="100" height="100"/>
      <rect class="cls-5" x="1150" y="450" width="100" height="100"/>
      <rect class="cls-5" x="1150" y="550" width="100" height="100"/>
      <rect class="cls-5" x="1150" y="650" width="100" height="100"/>
      <rect class="cls-5" x="1150" y="750" width="100" height="100"/>
      <rect class="cls-5" x="1150" y="850" width="100" height="100"/>
      <rect class="cls-5" x="1150" y="950" width="100" height="100"/>
      <rect class="cls-5" x="1150" y="1050" width="100" height="100"/>
      <rect class="cls-5" x="1150" y="1150" width="100" height="100"/>
      <rect class="cls-5" x="1150" y="1250" width="100" height="100"/>
      <rect class="cls-5" x="1150" y="1350" width="100" height="100"/>
      <rect class="cls-5" x="1150" y="1450" width="100" height="100"/>
      <rect class="cls-5" x="1050" y="1050" width="100" height="100"/>
      <rect class="cls-5" x="950" y="1050" width="100" height="100"/>
      <rect class="cls-5" x="850" y="1050" width="100" height="100"/>
      <rect class="cls-5" x="750" y="1050" width="100" height="100"/>
      <rect class="cls-5" x="650" y="1050" width="100" height="100"/>
      <rect class="cls-5" x="550" y="1050" width="100" height="100"/>
      <rect class="cls-5" x="450" y="1050" width="100" height="100"/>
      <rect class="cls-5" x="1450" y="1050" width="100" height="100"/>
      <rect class="cls-5" x="1350" y="1050" width="100" height="100"/>
      <rect class="cls-5" x="1250" y="1050" width="100" height="100"/>
      <rect class="cls-5" x="350" y="1050" width="100" height="100"/>
      <rect class="cls-5" x="250" y="1050" width="100" height="100"/>
      <rect class="cls-5" x="150" y="1050" width="100" height="100"/>
    </g>
  </g>
  <g id="letters">
    <path class="cls-7" d="M1213.95,80.82v25.69c0,3.48-.39,6.15-1.17,8.03-.78,1.88-2.28,3.49-4.51,4.85-2.23,1.36-4.95,2.04-8.15,2.04s-5.92-.59-8.01-1.76-3.59-2.78-4.51-4.82c-.92-2.04-1.37-4.64-1.37-7.81v-26.22h7.32v25.69c0,3.52.73,5.83,2.2,6.93,1.47,1.1,3.17,1.66,5.12,1.66,2.24,0,4.03-.59,5.37-1.77,1.34-1.18,2.01-3.45,2.01-6.81v-25.69h5.69Z"/>
    <path class="cls-7" d="M1216.22,220.81h-7.58l-6.18-16.44h-10.09v16.44h-7.18v-39.99h17.27c4.8,0,8.33,1.09,10.59,3.27,2.26,2.18,3.38,5,3.38,8.45,0,5.14-2.39,8.67-7.18,10.61l6.97,17.67ZM1192.36,198.61h8.93c2.59,0,4.51-.55,5.78-1.64,1.26-1.09,1.9-2.6,1.9-4.51,0-1.76-.62-3.18-1.87-4.26-1.24-1.08-2.99-1.63-5.22-1.63h-9.51v12.04Z"/>
    <path d="M1209.34,306.93l6.65.73c-.43,4-1.97,7.3-4.62,9.89-2.65,2.59-6.14,3.88-10.46,3.88-3.64,0-6.59-.92-8.85-2.75-2.27-1.84-4.01-4.33-5.24-7.47-1.22-3.14-1.84-6.61-1.84-10.4,0-6.09,1.44-11.05,4.32-14.87,2.88-3.82,6.84-5.73,11.87-5.73,3.95,0,7.24,1.22,9.86,3.66,2.62,2.44,4.28,5.94,4.96,10.49l-6.65.7c-1.23-6.04-3.93-9.05-8.11-9.05-2.68,0-4.77,1.26-6.26,3.76-1.49,2.51-2.23,6.15-2.23,10.91s.8,8.5,2.39,10.97c1.59,2.47,3.71,3.71,6.33,3.71,2.1,0,3.89-.83,5.37-2.49,1.48-1.66,2.31-3.64,2.51-5.95Z"/>
    <path d="M1214.78,420.81h-7.18v-17.37h-15.2v17.37h-7.18v-39.99h7.18v16.44h15.2v-16.44h7.18v39.99Z"/>
    <path d="M1203.59,520.81h-7.18v-39.99h7.18v39.99Z"/>
    <path d="M1215.04,620.81h-6.97l-15.11-25.55c-.23-.39-.61-1.03-1.14-1.9-.23-.39-.59-1.01-1.08-1.85v29.3h-5.78v-39.99h7.94l13.95,23.55c.12.2.96,1.63,2.54,4.31v-27.86h5.66v39.99Z"/>
    <path d="M1209.34,806.93l6.65.73c-.43,4-1.97,7.3-4.62,9.89-2.65,2.59-6.14,3.88-10.46,3.88-3.64,0-6.59-.92-8.85-2.75-2.27-1.83-4.01-4.33-5.24-7.47-1.22-3.14-1.84-6.61-1.84-10.4,0-6.09,1.44-11.05,4.32-14.87,2.88-3.82,6.84-5.73,11.87-5.73,3.95,0,7.24,1.22,9.86,3.66,2.62,2.44,4.28,5.94,4.96,10.49l-6.65.7c-1.23-6.04-3.93-9.05-8.11-9.05-2.68,0-4.77,1.26-6.26,3.76-1.49,2.51-2.23,6.15-2.23,10.91s.8,8.5,2.39,10.97c1.59,2.47,3.71,3.71,6.33,3.71,2.1,0,3.89-.83,5.37-2.49,1.48-1.66,2.31-3.64,2.51-5.95Z"/>
    <path d="M1214.78,920.81h-7.18v-17.37h-15.2v17.37h-7.18v-39.99h7.18v16.44h15.2v-16.44h7.18v39.99Z"/>
    <path d="M1217.61,1020.81h-7.67l-3.18-9.52h-15.32l-3.12,9.52h-6.13l13.22-39.99h8.84l13.36,39.99ZM1204.83,1005.52l-5.81-17.84-5.81,17.84h11.61Z"/>
    <path d="M1213.99,1120.81h-24.51v-39.99h7.56v33.46h16.95v6.53Z"/>
    <path d="M1217.34,1220.81h-8.02l-8.4-20.36-7.7,10.25v10.11h-7.18v-39.99h7.18v21.01c.91-1.42,1.58-2.41,1.98-2.96l13.21-18.05h7.26l-9.45,13.15,11.12,26.84Z"/>
    <path d="M1217.61,1320.81h-7.67l-3.18-9.52h-15.32l-3.12,9.52h-6.13l13.22-39.99h8.84l13.36,39.99ZM1204.83,1305.52l-5.81-17.84-5.81,17.84h11.61Z"/>
    <path d="M1216.22,1420.81h-7.58l-6.18-16.44h-10.09v16.44h-7.18v-39.99h17.27c4.8,0,8.33,1.09,10.59,3.27,2.26,2.18,3.38,5,3.38,8.45,0,5.14-2.39,8.67-7.18,10.61l6.97,17.67ZM1192.36,1398.61h8.93c2.59,0,4.51-.55,5.78-1.64,1.26-1.09,1.9-2.6,1.9-4.51,0-1.76-.62-3.18-1.87-4.26-1.24-1.08-2.99-1.63-5.22-1.63h-9.51v12.04Z"/>
    <path class="cls-7" d="M1203.85,1520.81h-7.7v-33.81h-10.59v-6.18h28.88v6.18h-10.59v33.81Z"/>
    <path d="M1103.59,1120.81h-7.18v-39.99h7.18v39.99Z"/>
    <path d="M1014.78,1120.81h-7.18v-17.37h-15.2v17.37h-7.18v-39.99h7.18v16.44h15.2v-16.44h7.18v39.99Z"/>
    <path d="M817.34,1120.81h-8.02l-8.4-20.36-7.7,10.25v10.11h-7.18v-39.99h7.18v21.01c.91-1.42,1.58-2.41,1.98-2.96l13.21-18.05h7.26l-9.45,13.15,11.12,26.84Z"/>
    <path d="M703.59,1120.81h-7.18v-39.99h7.18v39.99Z"/>
    <path d="M615.04,1120.81h-6.97l-15.11-25.55c-.23-.39-.61-1.03-1.14-1.9-.23-.39-.59-1.01-1.08-1.85v29.3h-5.78v-39.99h7.94l13.95,23.55c.12.2.96,1.63,2.54,4.31v-27.86h5.66v39.99Z"/>
    <path class="cls-7" d="M503.85,1120.81h-7.7v-33.81h-10.59v-6.18h28.88v6.18h-10.59v33.81Z"/>
    <path class="cls-7" d="M1515.04,1120.81h-6.97l-15.11-25.55c-.23-.39-.61-1.03-1.14-1.9-.23-.39-.59-1.01-1.08-1.85v29.3h-5.78v-39.99h7.94l13.95,23.55c.12.2.96,1.63,2.54,4.31v-27.86h5.66v39.99Z"/>
    <path class="cls-7" d="M1399.83,1121.43c-5.29,0-9.41-1.99-12.36-5.98s-4.42-8.91-4.42-14.77,1.57-10.69,4.7-14.6c3.13-3.92,7.26-5.87,12.4-5.87s9.26,1.96,12.27,5.87c3,3.92,4.51,8.81,4.51,14.69,0,6.17-1.56,11.16-4.68,14.96-3.12,3.8-7.26,5.7-12.41,5.7ZM1399.88,1115.63c2.59,0,4.78-1.07,6.56-3.22,1.79-2.15,2.68-6.04,2.68-11.69,0-4.59-.74-8.19-2.22-10.8-1.48-2.61-3.77-3.91-6.88-3.91-6.15,0-9.22,4.97-9.22,14.91,0,4.82.78,8.48,2.35,10.97,1.56,2.49,3.81,3.74,6.72,3.74Z"/>
    <path class="cls-7" d="M1303.85,1120.81h-7.7v-33.81h-10.59v-6.18h28.88v6.18h-10.59v33.81Z"/>
    <path class="cls-7" d="M413.95,1080.82v25.69c0,3.48-.39,6.15-1.17,8.03-.78,1.88-2.28,3.49-4.51,4.85-2.23,1.36-4.95,2.04-8.15,2.04s-5.92-.59-8.01-1.76-3.59-2.78-4.51-4.82c-.92-2.04-1.37-4.64-1.37-7.81v-26.22h7.32v25.69c0,3.52.73,5.83,2.2,6.93,1.47,1.1,3.17,1.66,5.12,1.66,2.24,0,4.03-.59,5.37-1.77,1.34-1.18,2.01-3.45,2.01-6.81v-25.69h5.69Z"/>
    <path class="cls-7" d="M293.65,1120.81h-7.18v-39.99h16.31c4.65,0,8.1,1.18,10.34,3.53,2.25,2.35,3.37,5.13,3.37,8.33,0,3.65-1.21,6.61-3.65,8.88-2.43,2.27-5.51,3.4-9.25,3.4h-9.95v15.85ZM293.65,1098.78h8.49c2.22,0,3.91-.55,5.08-1.64,1.17-1.09,1.75-2.55,1.75-4.37,0-1.64-.54-3.05-1.62-4.22s-3.03-1.76-5.85-1.76h-7.85v11.98Z"/>
    <path class="cls-7" d="M183.14,1111.17l6.97-1.49c.84,3.97,4.04,5.95,9.63,5.95,2.55,0,4.51-.51,5.88-1.52,1.37-1.01,2.06-2.27,2.06-3.78,0-1.09-.31-2.1-.93-3.03-.62-.93-1.95-1.66-4-2.18l-7.61-1.99c-2.61-.68-4.53-1.46-5.78-2.33-1.24-.87-2.24-2.09-2.99-3.68s-1.12-3.27-1.12-5.07c0-3.57,1.32-6.44,3.97-8.6,2.64-2.16,6.03-3.24,10.15-3.24,3.42,0,6.48.75,9.17,2.26,2.69,1.5,4.41,3.63,5.15,6.39l-6.83,1.7c-1.05-3.03-3.5-4.54-7.35-4.54-2.24,0-3.94.47-5.12,1.41-1.18.94-1.77,2.13-1.77,3.57,0,2.29,1.85,3.89,5.54,4.8l6.77,1.7c4.1,1.04,6.86,2.56,8.26,4.58s2.1,4.25,2.1,6.69c0,3.93-1.47,7.02-4.42,9.27-2.95,2.26-6.76,3.38-11.45,3.38-3.95,0-7.41-.83-10.37-2.49-2.97-1.66-4.94-4.25-5.91-7.76Z"/>
    <rect class="cls-4" x="350" y="300" width="600" height="275"/>
    <g>
      <path d="M423.12,362.5h-7.67l-3.18-9.52h-15.32l-3.12,9.52h-6.13l13.22-39.99h8.84l13.36,39.99ZM410.34,347.21l-5.81-17.84-5.81,17.84h11.61Z"/>
      <path d="M444.13,351.63l5.72.59c-.74,3.71-2.17,6.46-4.29,8.23-2.12,1.78-4.68,2.67-7.67,2.67-4.07,0-7.19-1.49-9.38-4.47-2.19-2.98-3.28-6.63-3.28-10.94s1.2-8.13,3.59-11.04c2.39-2.91,5.58-4.37,9.57-4.37,6.42,0,10.24,3.4,11.47,10.2l-5.72.79c-.51-3.67-2.3-5.51-5.4-5.51-2.26,0-3.9.99-4.92,2.97-1.02,1.98-1.53,4.38-1.53,7.19,0,2.99.53,5.29,1.59,6.91,1.06,1.62,2.54,2.43,4.45,2.43,2.92,0,4.85-1.88,5.81-5.65Z"/>
      <path d="M461.6,362.5h-6.65v-29.59h6.01v7.06c.86-2.75,2.03-4.77,3.53-6.04,1.5-1.27,3.03-1.9,4.61-1.9.21,0,.5.01.88.03v7.18c-3.38,0-5.63,1.08-6.72,3.25-1.1,2.17-1.65,4.27-1.65,6.3v13.71Z"/>
      <path d="M485.93,363.12c-4.36,0-7.68-1.57-9.98-4.72-2.29-3.14-3.44-6.75-3.44-10.81,0-4.38,1.27-8.02,3.81-10.93,2.54-2.91,5.89-4.37,10.05-4.37,3.95,0,7.19,1.42,9.73,4.25,2.54,2.83,3.81,6.51,3.81,11.04s-1.32,8.42-3.95,11.26c-2.64,2.84-5.98,4.26-10.02,4.26ZM486.17,357.61c4.47,0,6.71-3.35,6.71-10.05,0-3.03-.54-5.42-1.6-7.16-1.07-1.75-2.71-2.62-4.93-2.62s-4,.9-5.11,2.71c-1.11,1.81-1.66,4.2-1.66,7.19,0,3.22.59,5.68,1.77,7.38s2.79,2.55,4.83,2.55Z"/>
      <path d="M502.42,355.7l6.24-1.2c.95,2.4,3.05,3.6,6.3,3.6,4.12,0,6.18-1.22,6.18-3.66,0-.78-.32-1.43-.96-1.93-.64-.51-1.4-.85-2.28-1.03l-5.37-1.03c-5.95-1.15-8.93-4.07-8.93-8.76,0-2.62.94-4.84,2.83-6.67,1.89-1.83,4.7-2.74,8.43-2.74,6.22,0,10.03,2.3,11.41,6.88l-5.92,1.2c-.62-2.23-2.39-3.34-5.31-3.34-3.54,0-5.31,1.11-5.31,3.34,0,1.54,1.43,2.61,4.29,3.19l6.33,1.32c4.92,1.02,7.38,3.85,7.38,8.5,0,3.26-1.26,5.7-3.79,7.31s-5.53,2.42-9.01,2.42c-3.01,0-5.68-.61-7.99-1.83-2.32-1.22-3.82-3.08-4.52-5.58Z"/>
      <path d="M529.55,355.7l6.24-1.2c.95,2.4,3.05,3.6,6.3,3.6,4.12,0,6.18-1.22,6.18-3.66,0-.78-.32-1.43-.96-1.93-.64-.51-1.4-.85-2.28-1.03l-5.37-1.03c-5.95-1.15-8.93-4.07-8.93-8.76,0-2.62.94-4.84,2.83-6.67,1.89-1.83,4.7-2.74,8.43-2.74,6.22,0,10.03,2.3,11.41,6.88l-5.92,1.2c-.62-2.23-2.39-3.34-5.31-3.34-3.54,0-5.31,1.11-5.31,3.34,0,1.54,1.43,2.61,4.29,3.19l6.33,1.32c4.92,1.02,7.38,3.85,7.38,8.5,0,3.26-1.26,5.7-3.79,7.31s-5.53,2.42-9.01,2.42c-3.01,0-5.68-.61-7.99-1.83-2.32-1.22-3.82-3.08-4.52-5.58Z"/>
    </g>
    <g>
      <path d="M162.45,1069.43v-2.84h1.82c1.09,0,2-.24,2.73-.73s1.09-1.21,1.09-2.18-.31-1.66-.93-2.14c-.62-.48-1.41-.72-2.38-.72-1.96,0-3.3.97-4.01,2.9l-3.28-.57c.37-1.52,1.22-2.77,2.56-3.74,1.34-.97,2.95-1.45,4.83-1.45s3.48.49,4.81,1.46,1.99,2.27,1.99,3.9c0,1.21-.36,2.25-1.07,3.11s-1.6,1.33-2.65,1.41c1.3.2,2.35.74,3.14,1.62.79.89,1.19,1.96,1.19,3.21,0,1.72-.69,3.13-2.06,4.24s-3.21,1.66-5.49,1.66c-2.11,0-3.85-.54-5.23-1.62s-2.24-2.32-2.6-3.71l3.4-.83c.68,2.23,2.15,3.34,4.41,3.34,1.17,0,2.11-.3,2.82-.9s1.07-1.33,1.07-2.17-.31-1.61-.93-2.26c-.62-.65-1.55-.97-2.79-.97h-2.44Z"/>
      <path d="M178.74,1068.39c-2.33-1.07-3.5-2.67-3.5-4.79,0-1.64.64-2.99,1.93-4.05,1.29-1.06,3.09-1.59,5.41-1.59,2.11,0,3.8.47,5.08,1.42s1.92,2.2,1.92,3.77c0,1.9-1.18,3.35-3.54,4.34,2.89,1.24,4.33,2.99,4.33,5.26,0,1.68-.72,3.07-2.17,4.18s-3.39,1.65-5.84,1.65c-2.59,0-4.54-.51-5.86-1.53-1.32-1.02-1.98-2.3-1.98-3.84,0-2.2,1.41-3.8,4.22-4.8ZM181.2,1069.57c-.97.35-1.75.84-2.35,1.46-.59.62-.89,1.28-.89,1.99s.37,1.39,1.12,2.01,1.89.92,3.44.92c1.28,0,2.3-.25,3.04-.75s1.12-1.15,1.12-1.93c0-.67-.31-1.26-.93-1.77-.62-.51-2.13-1.15-4.54-1.92ZM183.55,1066.44c1.84-.76,2.76-1.82,2.76-3.18,0-.89-.37-1.58-1.12-2.07s-1.61-.73-2.6-.73-1.9.22-2.63.66-1.1,1.08-1.1,1.92.4,1.53,1.2,1.99c.8.46,1.96.93,3.5,1.41Z"/>
    </g>
    <path d="M962.41,1066.16c-2.33-1.07-3.5-2.67-3.5-4.79,0-1.64.64-2.99,1.93-4.05,1.29-1.06,3.09-1.59,5.41-1.59,2.11,0,3.8.47,5.08,1.42s1.92,2.2,1.92,3.76c0,1.9-1.18,3.35-3.54,4.34,2.89,1.24,4.33,2.99,4.33,5.26,0,1.68-.72,3.07-2.17,4.17s-3.39,1.66-5.84,1.66c-2.59,0-4.54-.51-5.86-1.53-1.32-1.02-1.98-2.3-1.98-3.84,0-2.2,1.41-3.8,4.22-4.8ZM964.87,1067.34c-.97.35-1.75.84-2.35,1.46-.59.62-.89,1.28-.89,1.99s.37,1.39,1.12,2.01,1.89.92,3.44.92c1.28,0,2.3-.25,3.04-.75s1.12-1.14,1.12-1.93c0-.67-.31-1.26-.93-1.77-.62-.51-2.13-1.15-4.54-1.92ZM967.22,1064.21c1.84-.76,2.76-1.82,2.76-3.18,0-.89-.37-1.58-1.12-2.07s-1.61-.73-2.6-.73-1.9.22-2.63.66-1.1,1.08-1.1,1.92.4,1.53,1.2,1.99c.8.46,1.96.93,3.5,1.41Z"/>
    <g>
      <path d="M1157.59,72.96l3-.86c.77,1.39,1.89,2.08,3.36,2.08s2.66-.7,3.47-2.09c.81-1.4,1.22-3.34,1.24-5.84-.72,1.35-1.53,2.21-2.42,2.6s-1.82.58-2.79.58c-1.86,0-3.42-.59-4.67-1.77-1.26-1.18-1.89-2.73-1.89-4.65s.65-3.54,1.95-4.81c1.3-1.27,3.02-1.91,5.17-1.91,2.43,0,4.39.84,5.89,2.53,1.49,1.68,2.24,4.09,2.24,7.23s-.72,5.8-2.16,7.82-3.47,3.03-6.1,3.03c-1.67,0-3.05-.39-4.13-1.17-1.08-.78-1.8-1.7-2.15-2.75ZM1164.09,66.5c1.05,0,1.97-.34,2.76-1.03.79-.68,1.19-1.67,1.19-2.96,0-.89-.34-1.7-1.04-2.42s-1.64-1.09-2.86-1.09c-1.14,0-2.06.36-2.78,1.09-.71.73-1.07,1.62-1.07,2.69,0,.94.33,1.79,1,2.56s1.6,1.16,2.79,1.16Z"/>
      <path d="M1178.4,66.71c-2.33-1.07-3.5-2.67-3.5-4.79,0-1.64.64-2.99,1.93-4.05,1.29-1.06,3.09-1.59,5.41-1.59,2.11,0,3.8.47,5.08,1.42s1.92,2.2,1.92,3.76c0,1.9-1.18,3.35-3.54,4.34,2.89,1.24,4.33,2.99,4.33,5.26,0,1.68-.72,3.07-2.17,4.17s-3.39,1.66-5.84,1.66c-2.59,0-4.54-.51-5.86-1.53-1.32-1.02-1.98-2.3-1.98-3.85,0-2.2,1.41-3.8,4.22-4.8ZM1180.87,67.9c-.97.35-1.75.84-2.35,1.46-.59.62-.89,1.28-.89,1.98s.37,1.39,1.12,2.01,1.89.92,3.44.92c1.28,0,2.3-.25,3.04-.75s1.12-1.15,1.12-1.93c0-.67-.31-1.26-.93-1.77-.62-.51-2.13-1.15-4.54-1.92ZM1183.21,64.76c1.84-.76,2.76-1.82,2.76-3.18,0-.89-.37-1.58-1.12-2.07s-1.61-.73-2.6-.73-1.9.22-2.63.66-1.1,1.08-1.1,1.92.4,1.53,1.2,1.99c.8.46,1.96.93,3.5,1.41Z"/>
    </g>
    <g>
      <path d="M1158.03,776.59l3-.86c.77,1.39,1.89,2.08,3.36,2.08s2.66-.7,3.47-2.09c.81-1.4,1.22-3.34,1.24-5.84-.72,1.35-1.53,2.21-2.42,2.6s-1.82.58-2.79.58c-1.86,0-3.42-.59-4.67-1.77-1.26-1.18-1.89-2.73-1.89-4.65s.65-3.54,1.95-4.81c1.3-1.27,3.02-1.91,5.17-1.91,2.43,0,4.39.84,5.89,2.53,1.49,1.68,2.24,4.09,2.24,7.23s-.72,5.8-2.16,7.82-3.47,3.03-6.1,3.03c-1.67,0-3.05-.39-4.13-1.17-1.08-.78-1.8-1.7-2.15-2.75ZM1164.53,770.13c1.05,0,1.97-.34,2.76-1.03.79-.68,1.19-1.67,1.19-2.96,0-.89-.34-1.7-1.04-2.42s-1.64-1.09-2.86-1.09c-1.14,0-2.06.36-2.78,1.09-.71.73-1.07,1.62-1.07,2.69,0,.94.33,1.79,1,2.56s1.6,1.16,2.79,1.16Z"/>
      <path d="M1190.29,780.21h-15.24v-2.94h6v-12.63c-1.99,1.75-3.81,2.95-5.44,3.6v-3.6c1.66-.63,2.7-1.09,3.12-1.35s1.03-.77,1.84-1.49c.81-.73,1.38-1.39,1.71-1.98h2.39v17.46h5.63v2.94Z"/>
    </g>
    <g>
      <path d="M395.6,409.2c-3.73-1.72-5.6-4.27-5.6-7.66,0-2.62,1.03-4.79,3.09-6.48s4.94-2.54,8.65-2.54c3.38,0,6.09.76,8.13,2.27s3.07,3.52,3.07,6.02c0,3.05-1.89,5.36-5.67,6.94,4.62,1.98,6.93,4.79,6.93,8.41,0,2.69-1.16,4.91-3.47,6.68s-5.43,2.65-9.35,2.65c-4.14,0-7.26-.82-9.37-2.45s-3.16-3.68-3.16-6.15c0-3.52,2.25-6.08,6.75-7.69ZM399.54,411.1c-1.56.56-2.81,1.34-3.76,2.33s-1.42,2.05-1.42,3.18.6,2.23,1.79,3.21,3.02,1.48,5.5,1.48c2.05,0,3.68-.4,4.87-1.21s1.79-1.83,1.79-3.08c0-1.08-.49-2.02-1.48-2.84-.99-.81-3.41-1.84-7.27-3.07ZM403.3,406.09c2.94-1.22,4.41-2.91,4.41-5.09,0-1.42-.6-2.52-1.8-3.3s-2.58-1.17-4.15-1.17-3.04.35-4.21,1.05c-1.18.7-1.76,1.73-1.76,3.07s.64,2.45,1.91,3.19c1.28.73,3.14,1.48,5.6,2.25Z"/>
      <path d="M397.56,468.47v-4.55h2.92c1.74,0,3.2-.39,4.36-1.17s1.75-1.95,1.75-3.49-.49-2.66-1.48-3.42-2.26-1.15-3.82-1.15c-3.14,0-5.28,1.55-6.42,4.64l-5.25-.91c.59-2.44,1.96-4.43,4.1-5.98s4.72-2.32,7.74-2.32,5.57.78,7.69,2.33c2.12,1.55,3.19,3.64,3.19,6.25,0,1.94-.57,3.59-1.72,4.97s-2.56,2.12-4.24,2.25c2.08.31,3.76,1.18,5.03,2.6,1.27,1.42,1.9,3.13,1.9,5.13,0,2.75-1.1,5.01-3.3,6.79-2.2,1.77-5.13,2.66-8.79,2.66-3.38,0-6.17-.86-8.37-2.59-2.2-1.73-3.59-3.71-4.17-5.94l5.44-1.34c1.09,3.56,3.44,5.34,7.05,5.34,1.87,0,3.37-.48,4.52-1.44s1.72-2.12,1.72-3.48-.49-2.58-1.48-3.62-2.48-1.56-4.47-1.56h-3.9Z"/>
      <path d="M423.63,466.8c-3.73-1.72-5.6-4.27-5.6-7.66,0-2.62,1.03-4.79,3.09-6.48s4.94-2.54,8.65-2.54c3.38,0,6.09.76,8.13,2.27s3.07,3.52,3.07,6.02c0,3.05-1.89,5.36-5.67,6.94,4.62,1.98,6.93,4.79,6.93,8.41,0,2.69-1.16,4.91-3.47,6.68s-5.43,2.65-9.35,2.65c-4.14,0-7.26-.82-9.37-2.45s-3.16-3.68-3.16-6.15c0-3.52,2.25-6.08,6.75-7.69ZM427.57,468.7c-1.56.56-2.81,1.34-3.76,2.33s-1.42,2.05-1.42,3.18.6,2.23,1.79,3.21,3.02,1.48,5.5,1.48c2.05,0,3.68-.4,4.87-1.21s1.79-1.83,1.79-3.08c0-1.08-.49-2.02-1.48-2.84-.99-.81-3.41-1.84-7.27-3.07ZM431.33,463.69c2.94-1.22,4.41-2.91,4.41-5.09,0-1.42-.6-2.52-1.8-3.3s-2.58-1.17-4.15-1.17-3.04.35-4.21,1.05c-1.18.7-1.76,1.73-1.76,3.07s.64,2.45,1.91,3.19c1.28.73,3.14,1.48,5.6,2.25Z"/>
    </g>
    <g>
      <path d="M478.99,425v-31.99h12.6c3.17,0,5.53.78,7.06,2.34,1.53,1.56,2.3,3.37,2.3,5.43,0,3.62-1.88,6.03-5.65,7.21,2.24.58,3.91,1.61,5,3.1,1.09,1.49,1.63,3.17,1.63,5.04,0,2.52-.84,4.62-2.53,6.32-1.69,1.7-4.29,2.54-7.81,2.54h-12.6ZM482.84,406.72h6.93c2.88,0,4.8-.55,5.76-1.65s1.45-2.39,1.45-3.88-.52-2.66-1.55-3.56c-1.04-.91-2.58-1.36-4.63-1.36h-7.96v10.45ZM482.84,421.48h8.54c2.08,0,3.7-.51,4.83-1.52s1.7-2.34,1.7-3.96c0-1.14-.26-2.2-.77-3.18-.51-.98-1.24-1.73-2.17-2.26s-2.33-.8-4.18-.8h-7.96v11.72Z"/>
      <path d="M511.34,393.01v4.1h-3.94v-4.1h3.94ZM511.22,401.33v23.67h-3.66v-23.67h3.66Z"/>
      <path d="M537.78,397.62v2.93c-1.68,0-2.8.2-3.37.59-.57.39-.95,1.09-1.13,2.11,1.51,1.75,2.26,3.66,2.26,5.72s-.82,4.01-2.46,5.55-3.85,2.32-6.62,2.32c-.62,0-1.16-.05-1.61-.14-.86-.17-1.39-.26-1.61-.26-.42,0-.93.21-1.52.62-.59.41-.89.95-.89,1.61,0,.94.43,1.55,1.28,1.83.86.28,2.87.46,6.04.54,2.69.08,4.68.26,5.96.55,1.28.29,2.37.93,3.26,1.92s1.33,2.21,1.33,3.64c0,4.52-3.95,6.77-11.86,6.77-3.75,0-6.48-.57-8.2-1.7-1.72-1.13-2.58-2.65-2.58-4.54,0-2.3,1.2-3.88,3.59-4.74-1.54-1.01-2.31-2.29-2.31-3.82,0-1.83,1.09-3.22,3.27-4.19-2.04-1.66-3.06-3.74-3.06-6.25,0-2.34.87-4.26,2.61-5.76,1.74-1.5,3.87-2.25,6.37-2.25,1.77,0,3.38.34,4.83,1.01.23-1.55.77-2.62,1.62-3.21.85-.59,2.13-.89,3.86-.89.17,0,.47.02.91.05ZM522.19,424.04c-1.71.75-2.57,1.84-2.57,3.26,0,1.2.7,2.14,2.11,2.8s3.2,1,5.38,1c2.02,0,3.87-.29,5.55-.86s2.52-1.54,2.52-2.89c0-.73-.25-1.34-.75-1.8s-1.18-.77-2.04-.89c-.86-.12-2.37-.22-4.52-.28-2.57-.06-4.47-.17-5.7-.33ZM526.58,414.03c1.56,0,2.82-.48,3.8-1.44s1.47-2.21,1.47-3.74-.51-2.84-1.53-3.83-2.25-1.49-3.7-1.49-2.61.46-3.69,1.39-1.61,2.25-1.61,3.97c0,1.53.48,2.77,1.45,3.71s2.23,1.42,3.8,1.42Z"/>
      <path d="M572.53,425h-3.43v-15.21c0-2.19-.47-3.73-1.42-4.62s-2.1-1.34-3.45-1.34c-1.87,0-3.43.75-4.7,2.25s-1.9,3.48-1.9,5.93v12.98h-3.66v-23.67h3.41v4.36c1.91-3.34,4.4-5.02,7.45-5.02,1.76,0,3.26.46,4.49,1.37s2.08,1.94,2.54,3.08.69,3.2.69,6.19v13.69Z"/>
      <path d="M598.3,425h-3.62c-.14-.75-.28-2.17-.42-4.27-1.62,3.28-4.37,4.92-8.26,4.92-2.65,0-4.68-.7-6.09-2.11s-2.12-3.1-2.12-5.07c0-2.39,1.01-4.36,3.03-5.9s5.46-2.31,10.32-2.31c.65,0,1.7.03,3.13.09,0-1.88-.14-3.23-.43-4.07-.29-.84-.9-1.5-1.83-2s-2.16-.75-3.69-.75c-3.72,0-5.88,1.42-6.49,4.27l-3.38-.59c.83-4.36,4.29-6.54,10.41-6.54,3.25,0,5.56.72,6.92,2.17s2.04,3.95,2.04,7.51v10.05c0,1.67.16,3.2.49,4.59ZM594.26,413.16c-1.49-.09-2.63-.14-3.41-.14-2.89,0-5.14.48-6.75,1.43s-2.4,2.35-2.4,4.18c0,1.16.43,2.15,1.3,2.96.86.81,2.11,1.22,3.75,1.22,2.21,0,4.03-.81,5.45-2.42s2.14-3.51,2.14-5.69c0-.44-.02-.96-.07-1.55Z"/>
      <path d="M636.72,425h-3.57v-14.72c0-1.52-.1-2.65-.31-3.41-.21-.76-.72-1.45-1.53-2.09s-1.72-.95-2.73-.95c-1.4,0-2.75.64-4.05,1.93-1.3,1.29-1.95,3.25-1.95,5.89v13.34h-3.55v-15.59c0-2.08-.49-3.55-1.48-4.41-.99-.86-2.03-1.29-3.12-1.29-1.56,0-2.91.67-4.06,2.02-1.15,1.34-1.73,3.05-1.73,5.11v14.16h-3.5v-23.67h3.15v4.55c1.76-3.47,4.18-5.2,7.26-5.2,1.7,0,3.14.55,4.32,1.66,1.18,1.11,1.94,2.45,2.29,4.01,1.62-3.78,4.1-5.67,7.45-5.67,1.6,0,3.01.46,4.21,1.38s1.99,1.98,2.36,3.18.55,2.88.55,5.05v14.72Z"/>
      <path d="M659.61,417.95l3.41.7c-.62,2.02-1.84,3.7-3.64,5.02-1.81,1.33-3.93,1.99-6.37,1.99-3.22,0-5.83-1.14-7.82-3.41-1.99-2.28-2.99-5.26-2.99-8.95s1.04-6.81,3.1-9.14c2.07-2.32,4.67-3.48,7.79-3.48s5.56,1.07,7.43,3.21,2.84,5.34,2.88,9.61h-17.13c0,3.58.75,5.99,2.24,7.24,1.49,1.25,3.07,1.88,4.74,1.88,3,0,5.12-1.55,6.35-4.66ZM659.4,410.75c-.03-1.33-.25-2.51-.65-3.54-.41-1.03-1.09-1.91-2.05-2.64-.97-.73-2.12-1.09-3.48-1.09-1.82,0-3.37.66-4.63,1.97-1.27,1.31-1.98,3.08-2.14,5.3h12.95Z"/>
      <path d="M684.66,393.01v4.1h-3.94v-4.1h3.94ZM684.54,401.33v23.67h-3.66v-23.67h3.66Z"/>
      <path d="M710.42,425h-3.43v-15.21c0-2.19-.47-3.73-1.42-4.62s-2.1-1.34-3.45-1.34c-1.87,0-3.43.75-4.7,2.25s-1.9,3.48-1.9,5.93v12.98h-3.66v-23.67h3.41v4.36c1.91-3.34,4.4-5.02,7.45-5.02,1.76,0,3.26.46,4.49,1.37s2.08,1.94,2.54,3.08.69,3.2.69,6.19v13.69Z"/>
      <path d="M748.18,425h-3.66v-14.37c0-1.69-.1-2.95-.31-3.8-.21-.84-.71-1.57-1.49-2.19-.79-.62-1.69-.93-2.72-.93-1.88,0-3.46.77-4.73,2.32s-1.9,3.62-1.9,6.21v12.75h-3.66v-31.99h3.66v12.68c1.67-3.34,4.05-5.02,7.14-5.02,1.38,0,2.62.27,3.7.82,1.08.55,1.91,1.27,2.49,2.16.58.89.97,1.77,1.18,2.64s.31,2.32.31,4.35v14.37Z"/>
      <path d="M763.96,425.66c-3.24,0-5.76-1.2-7.57-3.61-1.81-2.41-2.72-5.4-2.72-8.96,0-3.77,1.02-6.78,3.06-9.03,2.04-2.25,4.57-3.38,7.61-3.38,3.25,0,5.82,1.18,7.69,3.55,1.88,2.37,2.81,5.33,2.81,8.88s-1.01,6.71-3.03,9.04c-2.02,2.34-4.64,3.51-7.84,3.51ZM764.24,422.61c1.87,0,3.43-.77,4.69-2.32,1.26-1.55,1.89-3.95,1.89-7.22s-.66-5.66-1.98-7.14c-1.32-1.48-2.87-2.21-4.64-2.21s-3.36.75-4.62,2.24c-1.26,1.49-1.89,3.86-1.89,7.09,0,3.42.63,5.87,1.89,7.35,1.26,1.48,2.82,2.21,4.67,2.21Z"/>
      <path d="M790.66,422.49v2.91c-1.29.17-2.41.26-3.36.26-4.56,0-6.84-2.39-6.84-7.18v-14.27h-4.18v-2.88h4.18l.16-5.95,3.41-.33v6.28h5.27v2.88h-5.27v14.88c0,2.44,1.26,3.66,3.78,3.66.84,0,1.79-.09,2.85-.26Z"/>
      <path d="M809.43,417.95l3.41.7c-.62,2.02-1.84,3.7-3.64,5.02-1.81,1.33-3.93,1.99-6.37,1.99-3.22,0-5.83-1.14-7.82-3.41-1.99-2.28-2.99-5.26-2.99-8.95s1.04-6.81,3.1-9.14c2.07-2.32,4.67-3.48,7.79-3.48s5.56,1.07,7.43,3.21,2.84,5.34,2.88,9.61h-17.13c0,3.58.75,5.99,2.24,7.24,1.49,1.25,3.07,1.88,4.74,1.88,3,0,5.12-1.55,6.35-4.66ZM809.22,410.75c-.03-1.33-.25-2.51-.65-3.54-.41-1.03-1.09-1.91-2.05-2.64-.97-.73-2.12-1.09-3.48-1.09-1.82,0-3.37.66-4.63,1.97-1.27,1.31-1.98,3.08-2.14,5.3h12.95Z"/>
      <path d="M822.4,425h-3.66v-31.99h3.66v31.99Z"/>
      <path d="M826.56,418.86l3.5-.73c.78,2.98,3.24,4.48,7.38,4.48,1.52,0,2.82-.34,3.87-1.03,1.06-.69,1.59-1.65,1.59-2.9,0-1.86-1.35-3.04-4.04-3.53l-4.97-.95c-1.95-.38-3.49-1.11-4.64-2.2s-1.73-2.54-1.73-4.34c0-1.98.79-3.64,2.36-4.98,1.57-1.34,3.69-2,6.35-2,5.12,0,8.28,2.01,9.48,6.02l-3.36.73c-.96-2.47-2.95-3.7-5.95-3.7-1.49,0-2.72.31-3.68.92-.96.62-1.43,1.48-1.43,2.59,0,1.75,1.22,2.85,3.67,3.3l4.6.83c4.81.88,7.21,3.22,7.21,7.02,0,2.18-.9,3.93-2.68,5.27s-4.17,2.01-7.14,2.01c-5.59,0-9.04-2.27-10.36-6.8Z"/>
      <path d="M502.45,482.6h-3.87l-16.48-27.89.05,2.11c.05.8.07,1.47.07,2.02v23.76h-3.22v-31.99h4.99l15.4,26.07-.05-2.23c-.03-.87-.05-1.65-.05-2.32v-21.53h3.15v31.99Z"/>
      <path d="M525.65,475.55l3.41.7c-.62,2.02-1.84,3.7-3.64,5.02-1.81,1.33-3.93,1.99-6.37,1.99-3.22,0-5.83-1.14-7.82-3.41-1.99-2.28-2.99-5.26-2.99-8.95s1.04-6.82,3.1-9.14,4.67-3.48,7.79-3.48,5.56,1.07,7.43,3.21,2.84,5.34,2.88,9.61h-17.13c0,3.58.75,5.99,2.24,7.24,1.49,1.25,3.07,1.88,4.74,1.88,3,0,5.12-1.55,6.35-4.66ZM525.44,468.35c-.03-1.33-.25-2.51-.65-3.54-.41-1.03-1.09-1.91-2.05-2.64-.97-.73-2.12-1.09-3.48-1.09-1.82,0-3.37.66-4.63,1.97-1.27,1.31-1.98,3.08-2.14,5.3h12.95Z"/>
      <path d="M561.31,458.93l-6.79,23.67h-2.97l-5.26-17.58-4.83,17.58h-3.01l-7.08-23.67h3.68l5.13,17.65,4.9-17.65h2.68l5.31,17.72,5.3-17.72h2.95Z"/>
      <path d="M562.71,476.46l3.5-.73c.78,2.98,3.24,4.48,7.38,4.48,1.52,0,2.82-.34,3.87-1.03,1.06-.69,1.59-1.65,1.59-2.9,0-1.86-1.35-3.04-4.04-3.53l-4.97-.95c-1.95-.38-3.49-1.11-4.64-2.2s-1.73-2.54-1.73-4.34c0-1.98.79-3.64,2.36-4.98,1.57-1.34,3.69-2,6.35-2,5.12,0,8.28,2.01,9.48,6.02l-3.36.73c-.96-2.47-2.95-3.7-5.95-3.7-1.49,0-2.72.31-3.68.92s-1.43,1.48-1.43,2.59c0,1.75,1.22,2.85,3.67,3.3l4.6.83c4.81.88,7.21,3.22,7.21,7.02,0,2.18-.9,3.93-2.68,5.27-1.79,1.34-4.17,2.01-7.14,2.01-5.59,0-9.04-2.27-10.36-6.8Z"/>
      <path d="M619.63,482.6h-3.57v-14.72c0-1.52-.1-2.65-.31-3.41-.21-.76-.72-1.45-1.53-2.09s-1.72-.95-2.73-.95c-1.4,0-2.75.64-4.05,1.93-1.3,1.29-1.95,3.25-1.95,5.89v13.34h-3.55v-15.59c0-2.08-.49-3.55-1.48-4.41-.99-.86-2.03-1.29-3.12-1.29-1.56,0-2.91.67-4.06,2.02-1.15,1.34-1.73,3.05-1.73,5.11v14.16h-3.5v-23.67h3.15v4.55c1.76-3.47,4.18-5.2,7.26-5.2,1.7,0,3.14.55,4.32,1.66,1.18,1.11,1.94,2.45,2.29,4.01,1.62-3.78,4.1-5.67,7.45-5.67,1.6,0,3.01.46,4.21,1.38s1.99,1.98,2.36,3.18.55,2.88.55,5.05v14.72Z"/>
      <path d="M645.4,482.6h-3.62c-.14-.75-.28-2.17-.42-4.27-1.62,3.28-4.37,4.92-8.26,4.92-2.65,0-4.68-.7-6.09-2.11-1.42-1.41-2.12-3.1-2.12-5.07,0-2.39,1.01-4.36,3.03-5.9,2.02-1.54,5.46-2.31,10.32-2.31.65,0,1.7.03,3.13.09,0-1.88-.14-3.23-.43-4.07-.29-.84-.9-1.5-1.83-2s-2.16-.75-3.69-.75c-3.72,0-5.88,1.42-6.49,4.27l-3.38-.59c.83-4.36,4.29-6.54,10.41-6.54,3.25,0,5.56.72,6.92,2.17s2.04,3.95,2.04,7.51v10.05c0,1.67.16,3.2.49,4.59ZM641.36,470.76c-1.49-.09-2.63-.14-3.41-.14-2.89,0-5.14.48-6.75,1.43-1.6.96-2.4,2.35-2.4,4.18,0,1.16.43,2.15,1.3,2.96.86.81,2.11,1.22,3.75,1.22,2.21,0,4.03-.81,5.45-2.42s2.14-3.51,2.14-5.69c0-.44-.02-.96-.07-1.55Z"/>
      <path d="M671.7,482.6h-3.8l-6.89-13.22-5.11,5.9v7.31h-3.66v-31.99h3.66v20.51l10.95-12.19h3.92l-7.36,8.31,8.3,15.36Z"/>
      <path d="M690.7,475.55l3.41.7c-.62,2.02-1.84,3.7-3.64,5.02-1.81,1.33-3.93,1.99-6.37,1.99-3.22,0-5.83-1.14-7.82-3.41-1.99-2.28-2.99-5.26-2.99-8.95s1.04-6.82,3.1-9.14,4.67-3.48,7.79-3.48,5.56,1.07,7.43,3.21,2.84,5.34,2.88,9.61h-17.13c0,3.58.75,5.99,2.24,7.24,1.49,1.25,3.07,1.88,4.74,1.88,3,0,5.12-1.55,6.35-4.66ZM690.49,468.35c-.03-1.33-.25-2.51-.65-3.54-.41-1.03-1.09-1.91-2.05-2.64-.97-.73-2.12-1.09-3.48-1.09-1.82,0-3.37.66-4.63,1.97-1.27,1.31-1.98,3.08-2.14,5.3h12.95Z"/>
      <path d="M703.68,482.6h-3.66v-23.67h3.22v5.53c1.14-2.61,2.28-4.3,3.42-5.07,1.14-.77,2.31-1.16,3.51-1.16.37,0,.86.03,1.45.09v3.52h-.75c-2.02,0-3.7.76-5.04,2.27s-2.05,3.51-2.15,5.98v12.52Z"/>
      <path d="M736.16,483.26c-3.24,0-5.76-1.2-7.57-3.61-1.81-2.41-2.72-5.4-2.72-8.96,0-3.77,1.02-6.78,3.06-9.03,2.04-2.25,4.57-3.38,7.61-3.38,3.25,0,5.82,1.18,7.69,3.55s2.81,5.33,2.81,8.88-1.01,6.71-3.03,9.04c-2.02,2.34-4.64,3.51-7.84,3.51ZM736.44,480.21c1.87,0,3.43-.77,4.69-2.32,1.26-1.55,1.89-3.95,1.89-7.22s-.66-5.66-1.98-7.14c-1.32-1.48-2.87-2.21-4.64-2.21s-3.36.75-4.62,2.24c-1.26,1.49-1.89,3.86-1.89,7.09,0,3.42.63,5.87,1.89,7.35,1.26,1.48,2.82,2.21,4.67,2.21Z"/>
      <path d="M762.33,458.93v2.88h-5.6v20.79h-3.66v-20.79h-4.01v-2.88h4.01c.06-3.8.79-6.24,2.18-7.34,1.39-1.09,3.09-1.64,5.1-1.64.98,0,2.1.11,3.36.33v2.93c-.79-.2-1.55-.3-2.26-.3-1.6,0-2.79.36-3.56,1.07s-1.16,2.04-1.16,4v.96h5.6Z"/>
      <path d="M489.98,540.86c-4.09,0-7.28-1.6-9.57-4.8-2.29-3.2-3.43-7.12-3.43-11.76s1.2-8.85,3.59-12.01c2.4-3.16,5.57-4.74,9.52-4.74s7.09,1.55,9.48,4.66c2.38,3.1,3.57,7.02,3.57,11.74s-1.16,8.49-3.47,11.86c-2.31,3.37-5.54,5.05-9.7,5.05ZM490.08,537.6c2.79,0,4.96-1.27,6.54-3.82,1.57-2.55,2.36-5.83,2.36-9.85s-.81-7.34-2.44-9.64-3.79-3.45-6.48-3.45-4.89,1.24-6.49,3.73c-1.6,2.49-2.4,5.74-2.4,9.76s.81,7.12,2.43,9.58,3.78,3.69,6.49,3.69Z"/>
      <path d="M522.75,531.9l3.31.59c-.47,2.62-1.5,4.67-3.1,6.15s-3.6,2.22-6,2.22c-3.25,0-5.73-1.2-7.43-3.61-1.7-2.41-2.56-5.35-2.56-8.82s.9-6.59,2.7-8.97c1.8-2.38,4.24-3.58,7.34-3.58,2.57,0,4.62.77,6.17,2.31s2.51,3.53,2.88,5.96l-3.31.63c-.62-3.91-2.5-5.86-5.64-5.86-2.02,0-3.57.86-4.66,2.59s-1.63,3.96-1.63,6.71c0,3.03.54,5.39,1.62,7.07s2.6,2.52,4.55,2.52c3.03,0,4.95-1.97,5.75-5.91Z"/>
      <path d="M541.77,537.69v2.91c-1.29.17-2.41.26-3.36.26-4.56,0-6.84-2.39-6.84-7.18v-14.27h-4.18v-2.88h4.18l.16-5.95,3.41-.33v6.28h5.27v2.88h-5.27v14.88c0,2.44,1.26,3.66,3.78,3.66.84,0,1.79-.09,2.85-.26Z"/>
      <path d="M553.51,540.86c-3.24,0-5.76-1.2-7.57-3.61-1.81-2.41-2.72-5.4-2.72-8.96,0-3.77,1.02-6.78,3.06-9.03,2.04-2.25,4.57-3.38,7.61-3.38,3.25,0,5.82,1.18,7.69,3.55,1.88,2.37,2.81,5.33,2.81,8.88s-1.01,6.71-3.03,9.04c-2.02,2.34-4.64,3.51-7.84,3.51ZM553.79,537.81c1.87,0,3.43-.77,4.69-2.32,1.26-1.55,1.89-3.95,1.89-7.22s-.66-5.66-1.98-7.14c-1.32-1.48-2.87-2.21-4.64-2.21s-3.36.75-4.62,2.24c-1.26,1.49-1.89,3.86-1.89,7.09,0,3.42.63,5.87,1.89,7.35,1.26,1.48,2.82,2.21,4.67,2.21Z"/>
      <path d="M571.67,540.2h-1.77v-31.99h3.66v12.26c1.68-3.06,4-4.59,6.96-4.59,2.71,0,4.98,1.07,6.8,3.21s2.74,5.25,2.74,9.34c0,3.52-.9,6.47-2.7,8.86-1.8,2.38-4.14,3.58-7.01,3.58-3.21,0-5.66-1.52-7.38-4.57l-1.31,3.91ZM573.56,530.92c.17,2.43.92,4.19,2.23,5.29,1.32,1.1,2.71,1.65,4.17,1.65,1.87,0,3.38-.81,4.52-2.44,1.15-1.63,1.72-3.86,1.72-6.69,0-3.05-.55-5.45-1.66-7.19-1.11-1.75-2.64-2.62-4.61-2.62-1.54,0-2.93.62-4.17,1.86s-1.98,2.85-2.21,4.82v5.32Z"/>
      <path d="M611.14,533.15l3.41.7c-.62,2.02-1.84,3.7-3.64,5.02-1.81,1.33-3.93,1.99-6.37,1.99-3.22,0-5.83-1.14-7.82-3.41-1.99-2.28-2.99-5.26-2.99-8.95s1.04-6.81,3.1-9.14c2.07-2.32,4.67-3.48,7.79-3.48s5.56,1.07,7.43,3.21,2.84,5.34,2.88,9.61h-17.13c0,3.58.75,5.99,2.24,7.24,1.49,1.25,3.07,1.88,4.74,1.88,3,0,5.12-1.55,6.35-4.66ZM610.93,525.95c-.03-1.33-.25-2.51-.65-3.54-.41-1.03-1.09-1.91-2.05-2.64-.97-.73-2.12-1.09-3.48-1.09-1.82,0-3.37.66-4.63,1.97-1.27,1.31-1.98,3.08-2.14,5.3h12.95Z"/>
      <path d="M624.11,540.2h-3.66v-23.67h3.22v5.53c1.14-2.61,2.28-4.3,3.42-5.07,1.14-.77,2.31-1.16,3.51-1.16.37,0,.86.03,1.45.09v3.52h-.75c-2.02,0-3.7.76-5.04,2.27s-2.05,3.51-2.15,5.98v12.52Z"/>
      <path d="M665.56,540.2h-3.83v-7.62h-15.78v-2.7l14.65-22.33h4.96v21.87h5.16v3.16h-5.16v7.62ZM661.74,529.42v-15.12c0-1.09.02-2.27.07-3.54-.67,1.23-1.25,2.23-1.73,3l-9.96,15.66h11.62Z"/>
      <path d="M681.04,534.86v4.8l-3.48,6.56h-1.98l2.75-6.02h-2.38v-5.34h5.09Z"/>
      <path d="M723.14,537.22v2.98h-22.34v-2.98h9.57v-24.7c-2.82,2.95-5.74,5.26-8.78,6.91v-4.03c4.18-2.2,7.43-4.82,9.73-7.85h2.87v29.67h8.94Z"/>
      <path d="M726.55,534.39l3.2-1.17c1.32,2.95,3.55,4.43,6.68,4.43s5.32-1.28,6.85-3.84c1.53-2.56,2.32-6.04,2.37-10.43-2.08,3.84-5.22,5.77-9.41,5.77-2.96,0-5.44-1.01-7.44-3.04-2.01-2.03-3.01-4.53-3.01-7.52s1.05-5.63,3.16-7.79,4.8-3.24,8.06-3.24c4,0,7.06,1.41,9.2,4.23s3.2,6.7,3.2,11.65c0,5.19-1.13,9.39-3.38,12.61s-5.47,4.82-9.64,4.82c-4.87,0-8.15-2.16-9.83-6.47ZM737.12,525.93c2.19,0,4.03-.77,5.52-2.31,1.49-1.54,2.23-3.34,2.23-5.41s-.7-3.72-2.11-5.16c-1.41-1.44-3.26-2.16-5.57-2.16s-4.18.74-5.53,2.22-2.03,3.28-2.03,5.41c0,2.29.75,4.09,2.25,5.42s3.25,2,5.24,2Z"/>
      <path d="M775.21,508.21l-.33,3.45h-15.66l-.68,10.38c2.37-2.33,4.96-3.49,7.79-3.49,2.99,0,5.57,1.04,7.74,3.12s3.26,4.74,3.26,7.98-1.18,5.98-3.54,8.07-5.24,3.14-8.65,3.14c-2.68,0-5.06-.7-7.14-2.11s-3.45-3.23-4.11-5.46l3.38-1.17c1.4,3.72,4.04,5.58,7.9,5.58,2.54,0,4.56-.75,6.05-2.26s2.24-3.44,2.24-5.79-.74-4.37-2.22-5.75-3.25-2.07-5.32-2.07c-3.02,0-5.52,1.45-7.49,4.36l-3.15-.68,1.03-17.3h18.88Z"/>
      <path d="M791.2,540.2h-4.11c0-5.36,1.09-10.57,3.27-15.64,2.18-5.07,4.85-9.35,8-12.83h-17.29l.4-3.52h21.05v2.39c-3.8,4.59-6.64,9.38-8.52,14.34s-2.82,9.69-2.82,14.16c0,.25,0,.62.02,1.1Z"/>
    </g>
    <rect class="cls-4" x="350" y="625" width="600" height="225"/>
    <g>
      <path d="M391.67,687.5v-39.99h14.67c5.43,0,9.78,1.93,13.07,5.79,3.29,3.86,4.93,8.62,4.93,14.28s-1.69,10.4-5.08,14.21c-3.38,3.81-8.23,5.71-14.53,5.71h-13.07ZM399.05,681.61h5.98c3.21,0,5.93-1.21,8.17-3.63,2.24-2.42,3.36-6.02,3.36-10.81,0-3.91-.98-7.21-2.93-9.92-1.95-2.71-4.54-4.06-7.75-4.06h-6.83v28.42Z"/>
      <path d="M442.14,688.12c-4.36,0-7.68-1.57-9.98-4.72-2.29-3.14-3.44-6.75-3.44-10.81,0-4.38,1.27-8.02,3.81-10.93,2.54-2.91,5.89-4.37,10.05-4.37,3.95,0,7.19,1.42,9.73,4.25,2.54,2.83,3.81,6.51,3.81,11.04s-1.32,8.42-3.95,11.26c-2.64,2.84-5.98,4.26-10.02,4.26ZM442.38,682.61c4.47,0,6.71-3.35,6.71-10.05,0-3.03-.54-5.42-1.6-7.16-1.07-1.75-2.71-2.62-4.93-2.62s-4,.9-5.11,2.71c-1.11,1.81-1.66,4.2-1.66,7.19,0,3.22.59,5.68,1.77,7.38s2.79,2.55,4.83,2.55Z"/>
      <path d="M498.71,657.91l-8.64,29.59h-5.98l-5.31-20.74-5.28,20.74h-6.16l-9.07-29.59h7.06l5.81,19.89,5.08-19.89h6.04l5.16,19.89,5.69-19.89h5.6Z"/>
      <path d="M527.71,687.5h-6.65v-18.49c0-1.95-.45-3.42-1.34-4.41-.89-.99-1.97-1.48-3.24-1.48-1.73,0-3.25.76-4.55,2.29-1.3,1.52-1.96,3.82-1.96,6.88v15.21h-6.65v-29.59h6.07v6.86c2.12-4.98,5.09-7.47,8.93-7.47,2.59,0,4.8.82,6.64,2.46s2.76,4.52,2.76,8.64v19.1Z"/>
    </g>
    <g>
      <path d="M390.32,756.71l4.81-1.38c1.23,2.22,3.02,3.33,5.37,3.33s4.26-1.12,5.55-3.35c1.29-2.23,1.95-5.35,1.98-9.35-1.15,2.16-2.44,3.54-3.87,4.16s-2.92.93-4.46.93c-2.97,0-5.46-.94-7.48-2.82-2.02-1.88-3.02-4.36-3.02-7.44s1.04-5.66,3.12-7.7,4.83-3.06,8.27-3.06c3.89,0,7.03,1.35,9.42,4.04,2.39,2.7,3.58,6.55,3.58,11.57s-1.15,9.28-3.45,12.52-5.55,4.85-9.76,4.85c-2.68,0-4.88-.62-6.62-1.88-1.74-1.25-2.88-2.72-3.44-4.41ZM400.73,746.38c1.68,0,3.15-.55,4.42-1.64,1.27-1.09,1.9-2.67,1.9-4.73,0-1.42-.55-2.71-1.66-3.88-1.11-1.16-2.63-1.75-4.58-1.75-1.82,0-3.3.58-4.45,1.75s-1.72,2.6-1.72,4.3c0,1.5.53,2.87,1.6,4.1s2.56,1.85,4.47,1.85Z"/>
      <path d="M441.95,762.5h-24.39v-4.71h9.59v-20.2c-3.19,2.8-6.09,4.72-8.71,5.77v-5.77c2.66-1.02,4.33-1.74,4.99-2.17s1.65-1.23,2.94-2.39c1.29-1.16,2.2-2.22,2.73-3.18h3.83v27.94h9.01v4.71Z"/>
      <path d="M390.32,814.31l4.81-1.38c1.23,2.22,3.02,3.33,5.37,3.33s4.26-1.12,5.55-3.35c1.29-2.23,1.95-5.35,1.98-9.35-1.15,2.16-2.44,3.54-3.87,4.16s-2.92.93-4.46.93c-2.97,0-5.46-.94-7.48-2.82-2.02-1.88-3.02-4.36-3.02-7.44s1.04-5.66,3.12-7.7,4.83-3.06,8.27-3.06c3.89,0,7.03,1.35,9.42,4.04,2.39,2.7,3.58,6.55,3.58,11.57s-1.15,9.28-3.45,12.52-5.55,4.85-9.76,4.85c-2.68,0-4.88-.62-6.62-1.88-1.74-1.25-2.88-2.72-3.44-4.41ZM400.73,803.97c1.68,0,3.15-.55,4.42-1.64,1.27-1.09,1.9-2.67,1.9-4.73,0-1.42-.55-2.71-1.66-3.88-1.11-1.16-2.63-1.75-4.58-1.75-1.82,0-3.3.58-4.45,1.75s-1.72,2.6-1.72,4.3c0,1.5.53,2.87,1.6,4.1,1.07,1.23,2.56,1.85,4.47,1.85Z"/>
      <path d="M423.63,804.3c-3.73-1.72-5.6-4.27-5.6-7.66,0-2.62,1.03-4.79,3.09-6.48s4.94-2.54,8.65-2.54c3.38,0,6.09.76,8.13,2.27s3.07,3.52,3.07,6.02c0,3.05-1.89,5.36-5.67,6.94,4.62,1.98,6.93,4.79,6.93,8.41,0,2.69-1.16,4.91-3.47,6.68s-5.43,2.65-9.35,2.65c-4.14,0-7.26-.82-9.37-2.45s-3.16-3.68-3.16-6.15c0-3.52,2.25-6.08,6.75-7.69ZM427.57,806.2c-1.56.56-2.81,1.34-3.76,2.33s-1.42,2.05-1.42,3.18.6,2.23,1.79,3.21,3.02,1.48,5.5,1.48c2.05,0,3.68-.4,4.87-1.21s1.79-1.83,1.79-3.08c0-1.08-.49-2.02-1.48-2.84-.99-.81-3.41-1.84-7.27-3.07ZM431.33,801.19c2.94-1.22,4.41-2.91,4.41-5.09,0-1.42-.6-2.52-1.8-3.3s-2.58-1.17-4.15-1.17-3.04.35-4.21,1.05c-1.18.7-1.76,1.73-1.76,3.07s.64,2.45,1.91,3.19c1.28.73,3.14,1.48,5.6,2.25Z"/>
    </g>
    <g>
      <path d="M475.49,754.04l3.59-.82c1.45,4.36,4.58,6.54,9.41,6.54,2.52,0,4.42-.54,5.69-1.61,1.28-1.07,1.91-2.51,1.91-4.32,0-1.36-.49-2.46-1.46-3.29-.97-.83-2.1-1.4-3.37-1.72l-6.37-1.58c-1.65-.42-3-.93-4.05-1.54-1.05-.6-1.94-1.53-2.67-2.78-.73-1.25-1.1-2.68-1.1-4.29,0-2.68,1-4.81,3.01-6.4s4.58-2.38,7.73-2.38c5.79,0,9.59,2.63,11.41,7.9l-3.62,1.08c-.42-1.88-1.41-3.29-2.96-4.25-1.56-.96-3.21-1.44-4.97-1.44s-3.29.46-4.66,1.39-2.04,2.24-2.04,3.93c0,2.37,1.73,3.97,5.18,4.8l5.96,1.4c5.45,1.31,8.17,4.26,8.17,8.84,0,2.77-1.02,5.07-3.07,6.9s-4.93,2.75-8.65,2.75c-6.6,0-10.95-3.04-13.07-9.12Z"/>
      <path d="M509.66,730.51v4.1h-3.94v-4.1h3.94ZM509.54,738.83v23.67h-3.66v-23.67h3.66Z"/>
      <path d="M535.26,730.51v31.99h-3.31v-4.05c-1.65,3.14-4.14,4.71-7.46,4.71-2.76,0-5.03-1.16-6.8-3.48s-2.66-5.26-2.66-8.81.88-6.65,2.64-9.07c1.76-2.42,4.09-3.62,7-3.62s5.14,1.3,6.93,3.89v-11.55h3.67ZM531.6,747.97c0-2.08-.63-3.74-1.89-4.99-1.26-1.25-2.73-1.88-4.41-1.88-1.82,0-3.32.81-4.49,2.44s-1.76,3.91-1.76,6.84c0,3.17.54,5.59,1.62,7.24,1.08,1.66,2.56,2.48,4.45,2.48,1.71,0,3.22-.72,4.53-2.16s1.96-3.12,1.96-5.06v-4.92Z"/>
      <path d="M558.16,755.45l3.41.7c-.62,2.02-1.84,3.7-3.64,5.02-1.81,1.33-3.93,1.99-6.37,1.99-3.22,0-5.83-1.14-7.82-3.41-1.99-2.28-2.99-5.26-2.99-8.95s1.04-6.81,3.1-9.14c2.07-2.32,4.67-3.48,7.79-3.48s5.56,1.07,7.43,3.21,2.84,5.34,2.88,9.61h-17.13c0,3.58.75,5.99,2.24,7.24,1.49,1.25,3.07,1.88,4.74,1.88,3,0,5.12-1.55,6.35-4.66ZM557.95,748.25c-.03-1.33-.25-2.51-.65-3.54-.41-1.03-1.09-1.91-2.05-2.64-.97-.73-2.12-1.09-3.48-1.09-1.82,0-3.37.66-4.63,1.97-1.27,1.31-1.98,3.08-2.14,5.3h12.95Z"/>
      <path d="M593.82,738.83l-6.79,23.67h-2.97l-5.26-17.58-4.83,17.58h-3.01l-7.08-23.67h3.68l5.13,17.65,4.9-17.65h2.68l5.31,17.72,5.3-17.72h2.95Z"/>
      <path d="M616.3,762.5h-3.62c-.14-.75-.28-2.17-.42-4.27-1.62,3.28-4.37,4.92-8.26,4.92-2.65,0-4.68-.7-6.09-2.11s-2.12-3.1-2.12-5.07c0-2.39,1.01-4.36,3.03-5.9s5.46-2.31,10.32-2.31c.65,0,1.7.03,3.13.09,0-1.88-.14-3.23-.43-4.07-.29-.84-.9-1.5-1.83-2s-2.16-.75-3.69-.75c-3.72,0-5.88,1.42-6.49,4.27l-3.38-.59c.83-4.36,4.29-6.54,10.41-6.54,3.25,0,5.56.72,6.92,2.17s2.04,3.95,2.04,7.51v10.05c0,1.67.16,3.2.49,4.59ZM612.26,750.66c-1.49-.09-2.63-.14-3.41-.14-2.89,0-5.14.48-6.75,1.43s-2.4,2.35-2.4,4.18c0,1.16.43,2.15,1.3,2.96.86.81,2.11,1.22,3.75,1.22,2.21,0,4.03-.81,5.45-2.42s2.14-3.51,2.14-5.69c0-.44-.02-.96-.07-1.55Z"/>
      <path d="M626.8,762.5h-3.66v-31.99h3.66v31.99Z"/>
      <path d="M653.59,762.5h-3.8l-6.89-13.22-5.11,5.9v7.31h-3.66v-31.99h3.66v20.51l10.95-12.19h3.92l-7.36,8.31,8.3,15.36Z"/>
      <path d="M688.44,730.51v31.99h-3.31v-4.05c-1.65,3.14-4.14,4.71-7.46,4.71-2.76,0-5.03-1.16-6.8-3.48s-2.66-5.26-2.66-8.81.88-6.65,2.64-9.07c1.76-2.42,4.09-3.62,7-3.62s5.14,1.3,6.93,3.89v-11.55h3.67ZM684.77,747.97c0-2.08-.63-3.74-1.89-4.99-1.26-1.25-2.73-1.88-4.41-1.88-1.82,0-3.32.81-4.49,2.44s-1.76,3.91-1.76,6.84c0,3.17.54,5.59,1.62,7.24,1.08,1.66,2.56,2.48,4.45,2.48,1.71,0,3.22-.72,4.53-2.16s1.96-3.12,1.96-5.06v-4.92Z"/>
      <path d="M699.43,762.5h-3.66v-23.67h3.22v5.53c1.14-2.61,2.28-4.3,3.42-5.07,1.14-.77,2.31-1.16,3.51-1.16.37,0,.86.03,1.45.09v3.52h-.75c-2.02,0-3.7.76-5.04,2.27s-2.05,3.51-2.15,5.98v12.52Z"/>
      <path d="M729.96,762.5h-3.62c-.14-.75-.28-2.17-.42-4.27-1.62,3.28-4.37,4.92-8.26,4.92-2.65,0-4.68-.7-6.09-2.11s-2.12-3.1-2.12-5.07c0-2.39,1.01-4.36,3.03-5.9s5.46-2.31,10.32-2.31c.65,0,1.7.03,3.13.09,0-1.88-.14-3.23-.43-4.07-.29-.84-.9-1.5-1.83-2s-2.16-.75-3.69-.75c-3.72,0-5.88,1.42-6.49,4.27l-3.38-.59c.83-4.36,4.29-6.54,10.41-6.54,3.25,0,5.56.72,6.92,2.17s2.04,3.95,2.04,7.51v10.05c0,1.67.16,3.2.49,4.59ZM725.92,750.66c-1.49-.09-2.63-.14-3.41-.14-2.89,0-5.14.48-6.75,1.43s-2.4,2.35-2.4,4.18c0,1.16.43,2.15,1.3,2.96.86.81,2.11,1.22,3.75,1.22,2.21,0,4.03-.81,5.45-2.42s2.14-3.51,2.14-5.69c0-.44-.02-.96-.07-1.55Z"/>
      <path d="M763,738.83l-6.79,23.67h-2.97l-5.26-17.58-4.83,17.58h-3.01l-7.08-23.67h3.68l5.13,17.65,4.9-17.65h2.68l5.31,17.72,5.3-17.72h2.95Z"/>
      <path d="M771.36,730.51v4.1h-3.94v-4.1h3.94ZM771.24,738.83v23.67h-3.66v-23.67h3.66Z"/>
      <path d="M797.13,762.5h-3.43v-15.21c0-2.19-.47-3.73-1.42-4.62s-2.1-1.34-3.45-1.34c-1.87,0-3.43.75-4.7,2.25s-1.9,3.48-1.9,5.93v12.98h-3.66v-23.67h3.41v4.36c1.91-3.34,4.4-5.02,7.45-5.02,1.76,0,3.26.46,4.49,1.37s2.08,1.94,2.54,3.08.69,3.2.69,6.19v13.69Z"/>
      <path d="M823.71,735.12v2.93c-1.68,0-2.8.2-3.37.59-.57.39-.95,1.09-1.13,2.11,1.51,1.75,2.26,3.66,2.26,5.72s-.82,4.01-2.46,5.55-3.85,2.32-6.62,2.32c-.62,0-1.16-.05-1.61-.14-.86-.17-1.39-.26-1.61-.26-.42,0-.93.21-1.52.62-.59.41-.89.95-.89,1.61,0,.94.43,1.55,1.28,1.83.86.28,2.87.46,6.04.54,2.69.08,4.68.26,5.96.55,1.28.29,2.37.93,3.26,1.92s1.33,2.21,1.33,3.64c0,4.52-3.95,6.77-11.86,6.77-3.75,0-6.48-.57-8.2-1.7-1.72-1.13-2.58-2.65-2.58-4.54,0-2.3,1.2-3.88,3.59-4.74-1.54-1.01-2.31-2.29-2.31-3.82,0-1.83,1.09-3.22,3.27-4.19-2.04-1.66-3.06-3.74-3.06-6.25,0-2.34.87-4.26,2.61-5.76,1.74-1.5,3.87-2.25,6.37-2.25,1.77,0,3.38.34,4.83,1.01.23-1.55.77-2.62,1.62-3.21.85-.59,2.13-.89,3.86-.89.17,0,.47.02.91.05ZM808.12,761.54c-1.71.75-2.57,1.84-2.57,3.26,0,1.2.7,2.14,2.11,2.8s3.2,1,5.38,1c2.02,0,3.87-.29,5.55-.86s2.52-1.54,2.52-2.89c0-.73-.25-1.34-.75-1.8s-1.18-.77-2.04-.89c-.86-.12-2.37-.22-4.52-.28-2.57-.06-4.47-.17-5.7-.33ZM812.51,751.53c1.56,0,2.82-.48,3.8-1.44s1.47-2.21,1.47-3.74-.51-2.84-1.53-3.83-2.25-1.49-3.7-1.49-2.61.46-3.69,1.39-1.61,2.25-1.61,3.97c0,1.53.48,2.77,1.45,3.71s2.23,1.42,3.8,1.42Z"/>
      <path d="M824.76,756.36l3.5-.73c.78,2.98,3.24,4.48,7.38,4.48,1.52,0,2.82-.34,3.87-1.03,1.06-.69,1.59-1.65,1.59-2.9,0-1.86-1.35-3.04-4.04-3.53l-4.97-.95c-1.95-.38-3.49-1.11-4.64-2.2s-1.73-2.54-1.73-4.34c0-1.98.79-3.64,2.36-4.98,1.57-1.34,3.69-2,6.35-2,5.12,0,8.28,2.01,9.48,6.02l-3.36.73c-.96-2.47-2.95-3.7-5.95-3.7-1.49,0-2.72.31-3.68.92-.96.62-1.43,1.48-1.43,2.59,0,1.75,1.22,2.85,3.67,3.3l4.6.83c4.81.88,7.21,3.22,7.21,7.02,0,2.18-.9,3.93-2.68,5.27s-4.17,2.01-7.14,2.01c-5.59,0-9.04-2.27-10.36-6.8Z"/>
      <path d="M488.61,820.1h-3.99v-28.48h-9.12v-3.52h22.27v3.52h-9.15v28.48Z"/>
      <path d="M520.35,820.1h-3.66v-14.37c0-1.69-.1-2.95-.31-3.8-.21-.84-.71-1.57-1.49-2.19-.79-.62-1.69-.93-2.72-.93-1.88,0-3.46.77-4.73,2.32s-1.9,3.62-1.9,6.21v12.75h-3.66v-31.99h3.66v12.68c1.67-3.34,4.05-5.02,7.14-5.02,1.38,0,2.62.27,3.7.82,1.08.55,1.91,1.27,2.49,2.16.58.89.97,1.77,1.18,2.64s.31,2.32.31,4.35v14.37Z"/>
      <path d="M543.24,813.05l3.41.7c-.62,2.02-1.84,3.7-3.64,5.02-1.81,1.33-3.93,1.99-6.37,1.99-3.22,0-5.83-1.14-7.82-3.41-1.99-2.28-2.99-5.26-2.99-8.95s1.04-6.82,3.1-9.14,4.67-3.48,7.79-3.48,5.56,1.07,7.43,3.21,2.84,5.34,2.88,9.61h-17.13c0,3.58.75,5.99,2.24,7.24,1.49,1.25,3.07,1.88,4.74,1.88,3,0,5.12-1.55,6.35-4.66ZM543.03,805.85c-.03-1.33-.25-2.51-.65-3.54-.41-1.03-1.09-1.91-2.05-2.64-.97-.73-2.12-1.09-3.48-1.09-1.82,0-3.37.66-4.63,1.97-1.27,1.31-1.98,3.08-2.14,5.3h12.95Z"/>
      <path d="M586.29,820.1h-4.08l-3.2-9.35h-11.82l-2.85,9.35h-3.34l10.35-31.99h4.51l10.42,31.99ZM578.16,807.75l-4.93-15.38-4.93,15.38h9.86Z"/>
      <path d="M593.77,820.1h-3.66v-23.67h3.22v5.53c1.14-2.61,2.28-4.3,3.42-5.07,1.14-.77,2.31-1.16,3.51-1.16.37,0,.86.03,1.45.09v3.52h-.75c-2.02,0-3.7.76-5.04,2.27s-2.05,3.51-2.15,5.98v12.52Z"/>
      <path d="M618.14,817.59v2.91c-1.29.17-2.41.26-3.36.26-4.56,0-6.84-2.39-6.84-7.18v-14.27h-4.18v-2.88h4.18l.16-5.95,3.41-.33v6.28h5.27v2.88h-5.27v14.88c0,2.44,1.26,3.66,3.78,3.66.84,0,1.79-.09,2.85-.26Z"/>
      <path d="M631.93,796.43v2.88h-5.6v20.79h-3.66v-20.79h-4.01v-2.88h4.01c.06-3.8.79-6.24,2.18-7.34,1.39-1.09,3.09-1.64,5.1-1.64.98,0,2.1.11,3.36.33v2.93c-.79-.2-1.55-.3-2.26-.3-1.6,0-2.79.36-3.56,1.07s-1.16,2.04-1.16,4v.96h5.6Z"/>
      <path d="M655.04,820.1h-3.31v-4.52c-1.68,3.45-4.18,5.18-7.5,5.18-2.41,0-4.3-.8-5.67-2.39-1.38-1.6-2.06-3.86-2.06-6.8v-15.13h3.66v15.12c0,2.34.49,3.96,1.46,4.84s2.04,1.32,3.21,1.32,2.25-.34,3.21-1.01,1.75-1.63,2.39-2.87.96-2.6.96-4.07v-13.34h3.66v23.67Z"/>
      <path d="M666.03,820.1h-3.66v-31.99h3.66v31.99Z"/>
      <path d="M685.64,820.1v-31.99h10.69c4.5,0,8,1.54,10.5,4.62s3.76,6.84,3.76,11.3-1.22,8.32-3.66,11.43c-2.44,3.1-5.54,4.65-9.29,4.65h-12ZM689.63,816.7h6.46c3.42,0,6.02-1.19,7.79-3.56s2.66-5.51,2.66-9.4c0-3.16-.84-5.99-2.53-8.51s-4.33-3.77-7.92-3.77h-6.46v25.24Z"/>
      <path d="M724.68,820.76c-3.24,0-5.76-1.2-7.57-3.61-1.81-2.41-2.72-5.4-2.72-8.96,0-3.77,1.02-6.78,3.06-9.03,2.04-2.25,4.57-3.38,7.61-3.38,3.25,0,5.82,1.18,7.69,3.55s2.81,5.33,2.81,8.88-1.01,6.71-3.03,9.04c-2.02,2.34-4.64,3.51-7.84,3.51ZM724.96,817.71c1.87,0,3.43-.77,4.69-2.32,1.26-1.55,1.89-3.95,1.89-7.22s-.66-5.66-1.98-7.14c-1.32-1.48-2.87-2.21-4.64-2.21s-3.36.75-4.62,2.24c-1.26,1.49-1.89,3.86-1.89,7.09,0,3.42.63,5.87,1.89,7.35,1.26,1.48,2.82,2.21,4.67,2.21Z"/>
      <path d="M759.48,788.11v31.99h-3.31v-4.05c-1.65,3.14-4.14,4.71-7.46,4.71-2.76,0-5.03-1.16-6.8-3.48-1.78-2.32-2.66-5.26-2.66-8.81s.88-6.65,2.64-9.07c1.76-2.42,4.09-3.62,7-3.62s5.14,1.3,6.93,3.89v-11.55h3.67ZM755.82,805.57c0-2.08-.63-3.74-1.89-4.99-1.26-1.25-2.73-1.88-4.41-1.88-1.82,0-3.32.81-4.49,2.44s-1.76,3.91-1.76,6.84c0,3.17.54,5.59,1.62,7.24,1.08,1.66,2.56,2.48,4.45,2.48,1.71,0,3.22-.72,4.53-2.16s1.96-3.12,1.96-5.06v-4.92Z"/>
      <path d="M786.06,792.73v2.93c-1.68,0-2.8.2-3.37.59-.57.39-.95,1.09-1.13,2.11,1.51,1.75,2.26,3.66,2.26,5.72s-.82,4.01-2.46,5.55-3.85,2.32-6.62,2.32c-.62,0-1.16-.05-1.61-.14-.86-.17-1.39-.26-1.61-.26-.42,0-.93.21-1.52.62-.59.41-.89.95-.89,1.61,0,.94.43,1.55,1.28,1.83.86.28,2.87.46,6.04.54,2.69.08,4.68.26,5.96.55,1.28.29,2.37.93,3.26,1.92s1.33,2.21,1.33,3.64c0,4.52-3.95,6.77-11.86,6.77-3.75,0-6.48-.57-8.2-1.7-1.72-1.13-2.58-2.65-2.58-4.54,0-2.3,1.2-3.88,3.59-4.74-1.54-1.02-2.31-2.29-2.31-3.82,0-1.83,1.09-3.22,3.27-4.19-2.04-1.66-3.06-3.74-3.06-6.25,0-2.34.87-4.26,2.61-5.76,1.74-1.5,3.87-2.25,6.37-2.25,1.77,0,3.38.34,4.83,1.01.23-1.55.77-2.62,1.62-3.21.85-.59,2.13-.89,3.86-.89.17,0,.47.02.91.05ZM770.47,819.14c-1.71.75-2.57,1.84-2.57,3.26,0,1.2.7,2.14,2.11,2.8s3.2,1,5.38,1c2.02,0,3.87-.29,5.55-.86s2.52-1.54,2.52-2.89c0-.73-.25-1.34-.75-1.8s-1.18-.77-2.04-.89c-.86-.12-2.37-.22-4.52-.28-2.57-.06-4.47-.17-5.7-.33ZM774.86,809.13c1.56,0,2.82-.48,3.8-1.44s1.47-2.21,1.47-3.74-.51-2.84-1.53-3.83-2.25-1.49-3.7-1.49-2.61.46-3.69,1.39-1.61,2.25-1.61,3.97c0,1.53.48,2.77,1.45,3.71s2.23,1.42,3.8,1.42Z"/>
      <path d="M805.86,813.05l3.41.7c-.62,2.02-1.84,3.7-3.64,5.02-1.81,1.33-3.93,1.99-6.37,1.99-3.22,0-5.83-1.14-7.82-3.41-1.99-2.28-2.99-5.26-2.99-8.95s1.04-6.82,3.1-9.14,4.67-3.48,7.79-3.48,5.56,1.07,7.43,3.21,2.84,5.34,2.88,9.61h-17.13c0,3.58.75,5.99,2.24,7.24,1.49,1.25,3.07,1.88,4.74,1.88,3,0,5.12-1.55,6.35-4.66ZM805.65,805.85c-.03-1.33-.25-2.51-.65-3.54-.41-1.03-1.09-1.91-2.05-2.64-.97-.73-2.12-1.09-3.48-1.09-1.82,0-3.37.66-4.63,1.97-1.27,1.31-1.98,3.08-2.14,5.3h12.95Z"/>
      <path d="M818.83,820.1h-3.66v-23.67h3.22v5.53c1.14-2.61,2.28-4.3,3.42-5.07,1.14-.77,2.31-1.16,3.51-1.16.37,0,.86.03,1.45.09v3.52h-.75c-2.02,0-3.7.76-5.04,2.27s-2.05,3.51-2.15,5.98v12.52Z"/>
      <path d="M833.19,814.76v4.8l-3.48,6.56h-1.98l2.75-6.02h-2.38v-5.34h5.09Z"/>
      <path d="M867.8,813.05l3.41.7c-.62,2.02-1.84,3.7-3.64,5.02-1.81,1.33-3.93,1.99-6.37,1.99-3.22,0-5.83-1.14-7.82-3.41-1.99-2.28-2.99-5.26-2.99-8.95s1.04-6.82,3.1-9.14,4.67-3.48,7.79-3.48,5.56,1.07,7.43,3.21,2.84,5.34,2.88,9.61h-17.13c0,3.58.75,5.99,2.24,7.24,1.49,1.25,3.07,1.88,4.74,1.88,3,0,5.12-1.55,6.35-4.66ZM867.59,805.85c-.03-1.33-.25-2.51-.65-3.54-.41-1.03-1.09-1.91-2.05-2.64-.97-.73-2.12-1.09-3.48-1.09-1.82,0-3.37.66-4.63,1.97-1.27,1.31-1.98,3.08-2.14,5.3h12.95Z"/>
      <path d="M882.06,814.85v5.25h-5.23v-5.25h5.23Z"/>
      <path d="M908.31,792.73v2.93c-1.68,0-2.8.2-3.37.59-.57.39-.95,1.09-1.13,2.11,1.51,1.75,2.26,3.66,2.26,5.72s-.82,4.01-2.46,5.55-3.85,2.32-6.62,2.32c-.62,0-1.16-.05-1.61-.14-.86-.17-1.39-.26-1.61-.26-.42,0-.93.21-1.52.62-.59.41-.89.95-.89,1.61,0,.94.43,1.55,1.28,1.83.86.28,2.87.46,6.04.54,2.69.08,4.68.26,5.96.55,1.28.29,2.37.93,3.26,1.92s1.33,2.21,1.33,3.64c0,4.52-3.95,6.77-11.86,6.77-3.75,0-6.48-.57-8.2-1.7-1.72-1.13-2.58-2.65-2.58-4.54,0-2.3,1.2-3.88,3.59-4.74-1.54-1.02-2.31-2.29-2.31-3.82,0-1.83,1.09-3.22,3.27-4.19-2.04-1.66-3.06-3.74-3.06-6.25,0-2.34.87-4.26,2.61-5.76,1.74-1.5,3.87-2.25,6.37-2.25,1.77,0,3.38.34,4.83,1.01.23-1.55.77-2.62,1.62-3.21.85-.59,2.13-.89,3.86-.89.17,0,.47.02.91.05ZM892.72,819.14c-1.71.75-2.57,1.84-2.57,3.26,0,1.2.7,2.14,2.11,2.8s3.2,1,5.38,1c2.02,0,3.87-.29,5.55-.86s2.52-1.54,2.52-2.89c0-.73-.25-1.34-.75-1.8s-1.18-.77-2.04-.89c-.86-.12-2.37-.22-4.52-.28-2.57-.06-4.47-.17-5.7-.33ZM897.11,809.13c1.56,0,2.82-.48,3.8-1.44s1.47-2.21,1.47-3.74-.51-2.84-1.53-3.83-2.25-1.49-3.7-1.49-2.61.46-3.69,1.39-1.61,2.25-1.61,3.97c0,1.53.48,2.77,1.45,3.71s2.23,1.42,3.8,1.42Z"/>
      <path d="M917.49,814.85v5.25h-5.23v-5.25h5.23Z"/>
    </g>
  </g>
</svg>