<?xml version="1.0" encoding="UTF-8"?>
<svg id="letters" xmlns="http://www.w3.org/2000/svg" viewBox="0 0 505 3787.5">
  <defs>
    <style>
      .cls-1 {
        fill: #fff;
        stroke: #ffda00;
        stroke-miterlimit: 10;
        stroke-width: 9px;
      }
    </style>
  </defs>
  <path class="cls-1" d="M141.97,140.52l-14.46,608.07c-6.86,288.43-13.72,576.98-6.97,865.41,16.15,690.51-38.47,1382.53,10.34,2071.5.58,8.15,3.59,18.73,11.76,18.78,68.95.43,137.92-2.35,206.61-8.32,7.5-.65,16.22-2.12,19.73-8.77,1.45-2.74,1.71-5.94,1.92-9.03,6.28-91.08-6.48-182.22-15.27-273.09-20.83-215.38-19.38-432.91,4.32-648,51.45-466.88,31.83-938.3,14-1407.66-3.18-83.82-6.31-167.67-5.58-251.54,2.92-336.43,67.76-671.95,43.84-1007.54-97.87-25.91-202.71-24.9-270.25,50.2Z"/>
  <path class="cls-1" d="M134.88,172.41c3.57,109.94,7.14,219.88,10.71,329.82,1.82,56.1,3.64,112.34-.69,168.31-25.98,335.84-39.74,672.62-41.26,1009.46-.58,129.62.65,259.26,4.42,388.83,15.58,536,23.94,1072.21,25.08,1608.43,73.54,21.55,152.14,25.59,227.5,11.68-15.43-211.55-28.72-424.66-3.98-635.33,7.29-62.11,17.87-123.78,25.96-185.79,37.01-283.78,21.61-571.41,10.04-857.36-26.04-643.71-19.7-1256.8-6.14-1900.89-82.81-5.98-178.55-38.67-251.63,62.83Z"/>
</svg>