<?xml version="1.0" encoding="UTF-8"?>
<svg id="letters" xmlns="http://www.w3.org/2000/svg" viewBox="0 0 1825 1637.5">
  <defs>
    <style>
      .cls-1 {
        fill: #fff;
        stroke: #fadd00;
        stroke-miterlimit: 10;
        stroke-width: 8px;
      }
    </style>
  </defs>
  <path class="cls-1" d="M241.03,409.43c-62.12,4.81-138.39,15.15-193.03,48.29-48.38,29.34-33.08,110.46-31.61,158.15.3,9.81,1.13,20.63,8.11,27.54,6.04,5.98,15.1,7.41,23.54,8.38,50.28,5.78,101.22,5.82,151.51.12,1.58-.18,3.19-.36,4.76-.1,7.56,1.25,9.74,10.91,10.2,18.55,7.98,133.28,9.46,266.95,4.41,400.37-.4,10.68,1.49,24.59,11.94,26.81,2.89.61,5.88.09,8.8-.38,40.8-6.58,82.46-2.51,123.7.16,102.07,6.62,204.7,4.6,306.43-6.04,46.07-4.82,91.58-14.93,135.36-30.08,13.22-4.58,27.95-11.36,31.66-24.85,1.43-5.2.94-10.7.43-16.07-11.04-114.37-32.25-227.76-63.3-338.38-1.06-3.76-1.65-8.77,1.76-10.68,43.11-24.15,93.16-35.73,142.49-32.98,13.51.75,29.94,5.05,33.06,18.22.84,3.53.51,7.23.18,10.84-5.83,63.7-11.65,127.39-17.48,191.09-1.93,21.14-3.37,44.3,8.82,61.68,33.81-12.26,68.27-24.66,104.2-26.21,41.82-1.79,83.07,11.25,124.93,11.05,39.33-.19,77.77-12.04,117.06-13.84,67.24-3.08,134.94,4.01,200.08,20.96-3.1,13.06-6.19,26.12-9.29,39.18-5.51,23.24-11.05,46.69-11.67,70.56-1.92,73.49,2.63,147.15,13.58,219.85,83.5,6.56,167.73,3.87,250.65-8,23.95-3.43,32.88-32.78,36.62-56.68,13.21-84.38,26.37-171.13,7.91-254.52-21.37-96.55-33.48-195.14-36.12-293.98-174.4-40.3-357.09-44.36-533.11-11.84,16.01-70.53,15.92-144.67-.27-215.16-.31-1.35-.64-2.72-1.38-3.88-1.92-3.02-5.91-3.78-9.46-4.26-99.11-13.47-198.53-26.97-298.54-27.81s-201.21,11.33-294.41,47.64c-7.23,2.82-14.92,6.2-18.85,12.9-24.88,42.31-41.53,89.44-48.78,137.98-5.85,39.22-5.59,79.06-5.33,118.71.37,54.44.74,108.88,1.11,163.33.04,6.21-1.07,14.06-7.05,15.75-13.72,3.88-27.87,7.59-42.07,6.23s-28.66-8.79-34.53-21.79c-3.76-8.31-3.64-17.79-3.32-26.91,4.31-124.49,32.34-247.2,37.39-371.66.59-14.6.29-30.82-9.64-41.53-11.68-12.6-31.37-12.22-48.5-10.89-61,4.72-121.99,9.45-182.99,14.17Z"/>
  <path class="cls-1" d="M14.53,501.04c-4.87,40.14-6.43,80.68-4.66,121.07.47,10.8,2.11,23.24,11.24,29.02,5.08,3.21,11.39,3.55,17.39,3.8,56.25,2.33,112.49,4.66,168.74,6.99,3.06.13,7.06,1.13,7.17,4.19,4.63,126.98,5.39,254.1,2.29,381.13-.22,8.85-.04,18.79,6.25,25.02,5.63,5.58,14.32,6.31,22.24,6.69,107.87,5.19,215.9,6.91,323.88,5.15,83.79-1.37,168.69-5.02,248.76-29.76,18.44-5.7,20-30.85,17.92-50.04-11.85-109.31-23.7-218.63-35.55-327.94-2.21-20.39,22.24-32.39,42.41-36.08,29.16-5.33,59.09-6.42,88.55-3.21,16.03,1.75,16.19,24.87,12.45,40.55-17.9,74.98-16.45,154.5,4.17,228.78,2.21,7.96,13.05,8.73,21.27,7.87,161.33-17.02,323.54-26.79,485.76-25.28,13.67.13,16.76,19.15,15.49,32.76-9.02,96.96-11.52,194.53-7.48,291.83,13.41,10.62,31.88,11.41,48.99,11.5,47.29.26,95.46-1.11,140.86,12.14,28.29,8.26,60.84,21.51,84.98,4.6,15.12-10.59,21.27-30.4,21.07-48.86s-5.64-36.4-9.05-54.54c-10.24-54.52-2.05-110.56,3.97-165.7,11.85-108.54,15.17-218,9.94-327.06-.63-13.09-10.54-24.28-22.24-30.19-11.7-5.91-25.03-7.5-38.05-8.95q-.09,1.06-.09,1.06.18.23.18.23c-52.38-81.13-378.32,53.88-468.23,18.63-89.91-35.26,56.06-242.33-40.24-249.54-89.13-1.44-178.27-2.88-267.4-4.32-30.65-.5-61.32-.99-91.96.04-75.44,2.53-150.57,14.31-223.16,35.02-6.34,1.81-13.58,4.54-15.53,10.84-17.05,55-23.53,112.63-29.92,169.85-7.92,70.9-15.84,141.8-23.76,212.69-2.63,23.53-8.75,51.68-31.11,59.46-6.13,2.13-12.73,2.32-19.22,2.49l-42.55,1.12c-7.15.19-17.08-2.45-16.14-9.54,19.43-147.4,29.47-296.04,30.03-444.71.02-5.56-1.74-13.01-7.3-12.97-41.65.29-83.3.59-124.96.88-48.01.34-96.16.69-143.76,6.94-71.51,9.4-147.52,37.12-183.16,99.82"/>
</svg>