<?xml version="1.0" encoding="UTF-8"?>
<svg id="letters" xmlns="http://www.w3.org/2000/svg" viewBox="0 0 937.5 825">
  <defs>
    <style>
      .cls-1 {
        fill: #231f20;
      }

      .cls-1, .cls-2 {
        stroke-width: 8px;
      }

      .cls-1, .cls-2, .cls-3 {
        stroke: #231f20;
        stroke-miterlimit: 10;
      }

      .cls-2 {
        fill: #fff;
      }

      .cls-3 {
        fill: #fadd00;
        stroke-linecap: round;
        stroke-width: 6px;
      }
    </style>
  </defs>
  <rect class="cls-2" x="324.6" y="150" width="287.5" height="462.5" rx="143.75" ry="143.75"/>
  <rect class="cls-1" x="449.6" y="187.5" width="37.5" height="162.5" rx="18.75" ry="18.75"/>
  <path class="cls-3" d="M462.64,48.12l-75.78,42.55c-10.47,5.88-6.29,21.83,5.71,21.83h151.56c12,0,16.18-15.95,5.71-21.83l-75.78-42.55c-3.55-1.99-7.87-1.99-11.42,0Z"/>
  <path class="cls-3" d="M463.04,711.01l-75.78-42.55c-10.47-5.88-6.29-21.83,5.71-21.83h151.56c12,0,16.18,15.95,5.71,21.83l-75.78,42.55c-3.55,1.99-7.87,1.99-11.42,0Z"/>
  <path class="cls-3" d="M711.01,376.07l-42.55,75.78c-5.88,10.47-21.83,6.29-21.83-5.71v-151.56c0-12,15.95-16.18,21.83-5.71l42.55,75.78c1.99,3.55,1.99,7.87,0,11.42Z"/>
  <path class="cls-3" d="M226.49,364.66l42.55-75.78c5.88-10.47,21.83-6.29,21.83,5.71v151.56c0,12-15.95,16.18-21.83,5.71l-42.55-75.78c-1.99-3.55-1.99-7.87,0-11.42Z"/>
</svg>