<?xml version="1.0" encoding="UTF-8"?>
<svg id="letters" xmlns="http://www.w3.org/2000/svg" viewBox="0 0 937.5 825">
  <defs>
    <style>
      .cls-1 {
        fill: none;
        stroke: #fadd00;
        stroke-linecap: round;
        stroke-miterlimit: 10;
        stroke-width: 6px;
      }
    </style>
  </defs>
  <path class="cls-1" d="M445.81,4.59c-24.08,2.1-47.99-1.89-72.39,2.56-27.57,5.03-54.03,15.61-79.23,28.18-8.28,4.13-16.47,8.47-24.49,13.14-43.5,25.31-74.48,70.32-92.12,119.18-17.64,48.86-23.03,101.64-24.85,153.86-3.28,94.18,5.36,191.51,46.39,275.3,18.07,36.9,42.01,70.31,67.85,101.7,14.39,17.48,29.54,34.53,47.39,48.02,22.56,17.05,49.21,28.07,76.78,31.74,22.17,2.95,44.64,1.22,66.93-.51,33.32-2.59,66.84-5.22,99.26-13.7,35.03-9.17,68.86-23.37,100.26-42.09,19.78-11.79,38.91-25.67,52.96-44.45,20.2-26.99,28.23-61.59,35.73-95.01,17.56-78.23,35.25-158.19,27.88-238.2-7.89-85.68-45.52-167.98-104.23-227.99-6.89-7.04-14.05-13.78-21.45-20.21-47.54-41.32-105.32-69.15-165.83-81.36-30.62-6.18-61.99-8.38-93.11-6.3-29.49,1.97-59.57,14.62-86.97,26.24-45.33,19.23-86.92,52.46-108.47,98.58-8.41,18.01-13.59,37.5-17.8,57.07-15.87,73.8-18.51,150.16-15.18,225.74,2.91,66.12,10.34,132.02,22.21,197.03,5.42,29.67,12.13,60.05,28.87,84.61,12.22,17.93,29.16,31.75,47.03,43.31,40.57,26.25,87.2,42.05,134.72,45.64,61.66,4.66,122.95-10.89,182.67-27.7,28.28-7.96,56.66-16.3,83.09-29.55,26.43-13.26,51.04-31.79,67.96-56.91,12.26-18.19,20.11-39.24,26.66-60.44,24.51-79.41,32.05-164.76,20.09-247.29-11.96-82.53-43.59-162.06-92.48-227.84-18.8-25.3-40.24-48.68-65.24-67.12-58.29-42.99-132.32-56.38-203.5-54.31"/>
</svg>