<?xml version="1.0" encoding="UTF-8"?>
<svg id="letters" xmlns="http://www.w3.org/2000/svg" viewBox="0 0 675 475">
  <defs>
    <style>
      .cls-1 {
        fill: #fff;
        stroke: #fadd00;
        stroke-linecap: round;
        stroke-miterlimit: 10;
        stroke-width: 6px;
      }
    </style>
  </defs>
  <path class="cls-1" d="M318.71,12.5c-24.08,1.17-47.99-1.06-72.39,1.43-27.57,2.81-54.03,8.72-79.23,15.75-8.28,2.31-16.47,4.73-24.49,7.34-43.5,14.14-74.48,39.29-92.12,66.6-17.64,27.3-23.03,56.8-24.85,85.98-3.28,52.63,5.36,107.02,46.39,153.84,18.07,20.62,42.01,39.29,67.85,56.83,14.39,9.77,29.54,19.29,47.39,26.84,22.56,9.53,49.21,15.68,76.78,17.74,22.17,1.65,44.64.68,66.93-.29,33.32-1.45,66.84-2.92,99.26-7.66,35.03-5.12,68.86-13.06,100.26-23.52,19.78-6.59,38.91-14.34,52.96-24.84,20.2-15.08,28.23-34.42,35.73-53.09,17.56-43.72,35.25-88.4,27.88-133.11-7.89-47.88-45.52-93.87-104.23-127.4-6.89-3.93-14.05-7.7-21.45-11.3-47.54-23.09-105.32-38.64-165.83-45.47-30.62-3.45-61.99-4.68-93.11-3.52-29.49,1.1-59.57,8.17-86.97,14.67-45.33,10.75-86.92,29.31-108.47,55.09-8.41,10.07-13.59,20.95-17.8,31.89-15.87,41.24-18.51,83.91-15.18,126.15,2.91,36.95,10.34,73.78,22.21,110.1,5.42,16.58,12.13,33.56,28.87,47.28,12.22,10.02,29.16,17.74,47.03,24.2,40.57,14.67,87.2,23.5,134.72,25.51,61.66,2.6,122.95-6.09,182.67-15.48,28.28-4.45,56.66-9.11,83.09-16.51,26.43-7.41,51.04-17.77,67.96-31.8,12.26-10.17,20.11-21.93,26.66-33.78,24.51-44.37,32.05-92.07,20.09-138.19-11.96-46.12-43.59-90.56-92.48-127.32-18.8-14.14-40.24-27.2-65.24-37.51-58.29-24.03-132.32-31.5-203.5-30.35"/>
</svg>