<?xml version="1.0" encoding="UTF-8"?>
<svg id="letters" xmlns="http://www.w3.org/2000/svg" viewBox="0 0 675 475">
  <defs>
    <style>
      .cls-1 {
        fill: #fff;
      }

      .cls-1, .cls-2, .cls-3 {
        stroke: #231f20;
        stroke-miterlimit: 10;
      }

      .cls-1, .cls-3 {
        stroke-width: 4px;
      }

      .cls-2 {
        fill: #231f20;
        stroke-width: 8px;
      }

      .cls-3 {
        fill: #fadd00;
      }
    </style>
  </defs>
  <rect class="cls-1" x="170.05" y="121.79" width="132.69" height="213.46" rx="66.35" ry="66.35"/>
  <rect class="cls-2" x="227.74" y="139.1" width="17.31" height="75" rx="8.65" ry="8.65"/>
  <path class="cls-3" d="M230.68,76.49l-10.97,6.16c-10.47,5.88-6.29,21.83,5.71,21.83h21.94c12,0,16.18-15.95,5.71-21.83l-10.97-6.16c-3.55-1.99-7.87-1.99-11.42,0Z"/>
  <path class="cls-3" d="M230.87,378.99l-10.97-6.16c-10.47-5.88-6.29-21.83,5.71-21.83h21.94c12,0,16.18,15.95,5.71,21.83l-10.97,6.16c-3.55,1.99-7.87,1.99-11.42,0Z"/>
  <path class="cls-3" d="M346.66,229.21l-6.16,10.97c-5.88,10.47-21.83,6.29-21.83-5.71v-21.94c0-12,15.95-16.18,21.83-5.71l6.16,10.97c1.99,3.55,1.99,7.87,0,11.42Z"/>
  <path class="cls-3" d="M126.49,217.79l6.16-10.97c5.88-10.47,21.83-6.29,21.83,5.71v21.94c0,12-15.95,16.18-21.83,5.71l-6.16-10.97c-1.99-3.55-1.99-7.87,0-11.42Z"/>
  <g>
    <path d="M389.01,175v-31.99h11.79c4.36,0,7.86,1.54,10.5,4.63s3.96,6.89,3.96,11.43-1.36,8.32-4.08,11.37-6.61,4.57-11.67,4.57h-10.5ZM394.94,170.29h4.8c2.58,0,4.77-.97,6.56-2.91s2.7-4.82,2.7-8.65c0-3.12-.79-5.77-2.36-7.93s-3.64-3.25-6.22-3.25h-5.48v22.73Z"/>
    <path d="M425.62,148.56h-5.34v-5.55h5.34v5.55ZM425.62,175h-5.34v-23.67h5.34v23.67Z"/>
    <path d="M429.16,169.56l5.02-.96c.77,1.92,2.45,2.88,5.06,2.88,3.31,0,4.97-.98,4.97-2.93,0-.62-.26-1.14-.77-1.55s-1.12-.68-1.83-.82l-4.31-.82c-4.78-.92-7.17-3.26-7.17-7.01,0-2.09.76-3.87,2.27-5.33s3.77-2.19,6.77-2.19c5,0,8.05,1.84,9.16,5.51l-4.76.96c-.5-1.78-1.92-2.67-4.27-2.67-2.84,0-4.27.89-4.27,2.67,0,1.23,1.15,2.09,3.45,2.55l5.09,1.05c3.95.81,5.93,3.08,5.93,6.8,0,2.61-1.02,4.56-3.05,5.85s-4.45,1.93-7.24,1.93c-2.42,0-4.56-.49-6.42-1.46s-3.07-2.46-3.63-4.46Z"/>
    <path d="M474.09,175h-5.09c-.45-1.44-.73-3.03-.82-4.78-1.42,3.52-4.09,5.27-8.02,5.27-2.36,0-4.25-.69-5.68-2.07s-2.14-3.12-2.14-5.21c0-5.44,4.77-8.16,14.32-8.16.38,0,.88,0,1.52.02v-1.78c0-2.45-1.67-3.68-5.02-3.68s-5.09,1.23-5.53,3.68l-4.55-.68c.25-1.97,1.27-3.59,3.05-4.86s4.36-1.91,7.73-1.91c1.83,0,3.32.15,4.48.46s2.13.82,2.93,1.55,1.35,1.52,1.65,2.37.46,2.29.46,4.32v10.69c0,1.55.23,3.14.7,4.78ZM468.18,162.95c-6.91,0-10.36,1.65-10.36,4.95,0,.98.35,1.82,1.04,2.52s1.75,1.04,3.15,1.04c2.03,0,3.57-.64,4.61-1.93s1.56-2.75,1.56-4.39v-2.18Z"/>
    <path d="M482.19,175h-2.41v-31.99h5.34v11.55c1.02-1.77,2.03-2.93,3.05-3.49s2.2-.84,3.56-.84c2.59,0,4.74,1.1,6.45,3.3s2.55,5.26,2.55,9.16c0,3.53-.84,6.55-2.52,9.05s-4.09,3.75-7.23,3.75-5.61-1.46-7.36-4.38l-1.43,3.89ZM485.12,164.9c0,2.11.46,3.67,1.37,4.68s2.1,1.51,3.55,1.51,2.59-.58,3.54-1.73,1.46-3.42,1.52-6.8c0-2.47-.43-4.37-1.29-5.71s-2.07-2-3.63-2c-1.47,0-2.68.57-3.63,1.71s-1.43,2.75-1.43,4.83v3.52Z"/>
    <path d="M510.95,175h-5.34v-31.99h5.34v31.99Z"/>
    <path d="M532.42,167.45l4.83.66c-.62,2.14-1.84,3.91-3.66,5.3s-4.09,2.09-6.82,2.09c-3.28,0-5.92-1.1-7.92-3.3s-3-5.19-3-8.95,1.01-6.54,3.02-8.88,4.75-3.52,8.2-3.52,5.98,1.16,7.83,3.47,2.77,5.28,2.77,8.91l-.02.61h-16.24c0,1.61.15,2.9.46,3.87s.91,1.81,1.82,2.53,2.04,1.08,3.4,1.08c2.64,0,4.42-1.28,5.34-3.84ZM532.09,160.38c-.02-1.7-.53-3.09-1.54-4.17s-2.25-1.62-3.74-1.62-2.7.5-3.68,1.51-1.56,2.43-1.73,4.28h10.69Z"/>
    <path d="M413.45,216.24v16.36h-2.55l-1.76-4.31c-1.86,3.2-4.74,4.8-8.65,4.8-4.36,0-7.61-1.66-9.76-4.97s-3.22-7.15-3.22-11.51c0-4.61,1.2-8.51,3.6-11.71s5.75-4.79,10.07-4.79c3.22,0,5.87.93,7.95,2.8s3.39,4.19,3.94,6.97l-5.02.89c-.94-3.91-3.18-5.86-6.73-5.86-2.27,0-4.11.92-5.54,2.77s-2.14,4.68-2.14,8.51c0,8.08,2.53,12.12,7.59,12.12,1.97,0,3.6-.68,4.89-2.04s1.93-3.16,1.93-5.39h-6.61v-4.64h12.02Z"/>
    <path d="M439.16,232.6h-4.97v-5.11c-1.34,3.73-3.84,5.6-7.48,5.6-2.16,0-3.87-.67-5.13-2s-1.9-3.2-1.9-5.59v-16.57h5.46v15.42c0,1.7.38,2.82,1.12,3.35s1.48.8,2.2.8c1.16,0,2.34-.52,3.54-1.56s1.8-3.25,1.8-6.64v-11.37h5.34v23.67Z"/>
    <path d="M450.91,206.16h-5.34v-5.55h5.34v5.55ZM450.91,232.6h-5.34v-23.67h5.34v23.67Z"/>
    <path d="M476.78,232.6h-4.99v-4.78c-1.38,3.52-3.7,5.27-6.98,5.27-2.91,0-5.13-1.21-6.68-3.63s-2.32-5.43-2.32-9.02c0-3.34.8-6.26,2.41-8.74s3.9-3.73,6.87-3.73,5.16,1.39,6.35,4.17v-11.53h5.34v31.99ZM471.44,218.63c0-1.92-.46-3.42-1.37-4.49s-2.1-1.61-3.55-1.61c-1.58,0-2.81.69-3.7,2.06s-1.34,3.43-1.34,6.16c0,5.28,1.66,7.92,4.97,7.92,1.31,0,2.47-.57,3.48-1.7s1.51-2.58,1.51-4.35v-4.01Z"/>
    <path d="M498.23,225.05l4.83.66c-.62,2.14-1.84,3.91-3.66,5.3s-4.09,2.09-6.82,2.09c-3.28,0-5.92-1.1-7.92-3.3s-3-5.19-3-8.95,1.01-6.54,3.02-8.88,4.75-3.52,8.2-3.52,5.98,1.16,7.83,3.47,2.77,5.28,2.77,8.91l-.02.61h-16.24c0,1.61.15,2.9.46,3.87s.91,1.81,1.82,2.53,2.04,1.08,3.4,1.08c2.64,0,4.42-1.28,5.34-3.84ZM497.9,217.98c-.02-1.7-.53-3.09-1.54-4.17s-2.25-1.62-3.74-1.62-2.7.5-3.68,1.51-1.56,2.43-1.73,4.28h10.69Z"/>
    <path d="M527.8,232.6h-4.99v-4.78c-1.38,3.52-3.7,5.27-6.98,5.27-2.91,0-5.13-1.21-6.68-3.63s-2.32-5.43-2.32-9.02c0-3.34.8-6.26,2.41-8.74s3.9-3.73,6.87-3.73,5.16,1.39,6.35,4.17v-11.53h5.34v31.99ZM522.46,218.63c0-1.92-.46-3.42-1.37-4.49s-2.1-1.61-3.55-1.61c-1.58,0-2.81.69-3.7,2.06s-1.34,3.43-1.34,6.16c0,5.28,1.66,7.92,4.97,7.92,1.31,0,2.47-.57,3.48-1.7s1.51-2.58,1.51-4.35v-4.01Z"/>
    <path d="M385.82,282.49l5.6-1.2c.67,3.17,3.25,4.76,7.73,4.76,2.05,0,3.62-.41,4.72-1.22s1.65-1.82,1.65-3.02c0-.88-.25-1.68-.75-2.43s-1.57-1.32-3.21-1.75l-6.12-1.59c-2.09-.55-3.64-1.17-4.64-1.86s-1.8-1.68-2.4-2.94-.9-2.62-.9-4.05c0-2.86,1.06-5.15,3.19-6.88s4.84-2.59,8.16-2.59c2.75,0,5.21.6,7.37,1.8s3.54,2.91,4.14,5.11l-5.48,1.36c-.84-2.42-2.81-3.63-5.91-3.63-1.8,0-3.17.38-4.11,1.12s-1.42,1.7-1.42,2.86c0,1.83,1.48,3.11,4.45,3.84l5.44,1.36c3.3.83,5.51,2.05,6.63,3.67s1.69,3.4,1.69,5.36c0,3.14-1.18,5.61-3.55,7.42s-5.43,2.71-9.2,2.71c-3.17,0-5.95-.66-8.33-1.99s-3.96-3.4-4.75-6.21Z"/>
    <path d="M429.95,281.5l4.59.47c-.59,2.97-1.74,5.16-3.45,6.59s-3.76,2.13-6.16,2.13c-3.27,0-5.78-1.19-7.54-3.57s-2.64-5.3-2.64-8.75.96-6.51,2.88-8.84,4.48-3.49,7.69-3.49c5.16,0,8.23,2.72,9.21,8.16l-4.59.63c-.41-2.94-1.85-4.41-4.34-4.41-1.81,0-3.13.79-3.95,2.38s-1.23,3.5-1.23,5.75c0,2.39.43,4.23,1.28,5.53s2.04,1.95,3.57,1.95c2.34,0,3.9-1.51,4.66-4.52Z"/>
    <path d="M443.99,290.2h-5.34v-23.67h4.83v5.65c.69-2.2,1.63-3.81,2.84-4.83s2.44-1.52,3.7-1.52c.17,0,.41,0,.7.02v5.74c-2.72,0-4.52.87-5.4,2.6s-1.32,3.41-1.32,5.04v10.97Z"/>
    <path d="M463.54,290.69c-3.5,0-6.17-1.26-8.02-3.77s-2.77-5.4-2.77-8.65c0-3.5,1.02-6.41,3.06-8.74s4.73-3.49,8.07-3.49c3.17,0,5.78,1.13,7.82,3.4s3.06,5.21,3.06,8.84-1.06,6.74-3.18,9.01-4.8,3.41-8.05,3.41ZM463.73,286.29c3.59,0,5.39-2.68,5.39-8.04,0-2.42-.43-4.33-1.29-5.73s-2.18-2.1-3.96-2.1-3.21.72-4.1,2.17-1.34,3.36-1.34,5.75c0,2.58.47,4.55,1.42,5.91s2.24,2.04,3.88,2.04Z"/>
    <path d="M484.98,290.2h-5.34v-31.99h5.34v31.99Z"/>
    <path d="M496.73,290.2h-5.34v-31.99h5.34v31.99Z"/>
    <path d="M508.47,263.76h-5.34v-5.55h5.34v5.55ZM508.47,290.2h-5.34v-23.67h5.34v23.67Z"/>
    <path d="M534.48,290.2h-5.34v-14.79c0-1.56-.36-2.74-1.08-3.53s-1.59-1.18-2.6-1.18c-1.39,0-2.61.61-3.66,1.83s-1.57,3.05-1.57,5.51v12.16h-5.34v-23.67h4.88v5.48c1.7-3.98,4.09-5.98,7.17-5.98,2.08,0,3.86.66,5.33,1.97s2.21,3.62,2.21,6.91v15.28Z"/>
    <path d="M562.47,262v4.1h-1.64c-.72,0-1.35.09-1.89.26s-1.07.73-1.58,1.66c1.88,1.53,2.81,3.23,2.81,5.11,0,2.09-.88,3.83-2.64,5.2s-4.08,2.06-6.97,2.06c-1.25,0-2.71-.2-4.38-.61-1.09.5-1.64,1.27-1.64,2.32,0,.58.27,1.11.8,1.59s1.34.73,2.41.73h7.03c2.41,0,4.29.62,5.66,1.86s2.05,2.79,2.05,4.63c0,2.23-1.04,4.09-3.11,5.55s-5.14,2.2-9.2,2.2c-7.64,0-11.46-2.13-11.46-6.4,0-2.11,1.15-3.71,3.45-4.8-1.47-1.25-2.2-2.55-2.2-3.91,0-2.06,1.26-3.7,3.77-4.92-2.19-1.33-3.28-3.16-3.28-5.48,0-1.97.8-3.65,2.41-5.04s4.05-2.09,7.34-2.09c1.5,0,3.02.16,4.57.49.72-3.02,2.62-4.52,5.7-4.52h1.99ZM544.47,288.91c-.77.7-1.15,1.38-1.15,2.04,0,1.08.64,2.03,1.92,2.85s3.32,1.23,6.12,1.23c4.11,0,6.16-1.05,6.16-3.16,0-.78-.36-1.37-1.08-1.77s-1.54-.6-2.46-.6h-5.67c-1.08,0-2.36-.2-3.84-.59ZM550.33,277.24c2.91,0,4.36-1.37,4.36-4.1,0-1.05-.36-1.93-1.09-2.65s-1.79-1.08-3.18-1.08-2.5.38-3.27,1.12-1.16,1.69-1.16,2.81.38,2.09,1.15,2.81,1.83,1.08,3.19,1.08Z"/>
  </g>
</svg>